<svg xmlns="http://www.w3.org/2000/svg" width="500" height="500" fill="none"><path fill="#F0F0F0" d="M250.96 486.58c131.824 0 238.69-70.031 238.69-156.42S382.784 173.74 250.96 173.74 12.27 243.772 12.27 330.16c0 86.389 106.865 156.42 238.69 156.42"/><path fill="#EBEBEB" d="m181.57 78.339-7.63 4.41q.058-.498.06-1v-2.22c0-3.94-2.76-5.54-6.17-3.57a12 12 0 0 0-3.68 3.54c-.56-5-4.44-6.79-9.16-4.07-5.1 2.94-9.23 10.11-9.23 16v3.3a8.7 8.7 0 0 0 .78 3.84l-6.34 3.66a7.55 7.55 0 0 0-3.43 5.93c0 2.18 1.53 3.07 3.43 2l41.37-23.89a7.59 7.59 0 0 0 3.43-5.95c0-2.19-1.54-3.07-3.43-1.98M123 67.44l-4.21 1.62v-9.28c0-7.35-5.86-9.12-12.24-5.44C100.15 58 95 67 95 74.32v1.34c-1.44-.57-3.31-.35-5.35.83-4.59 2.65-8.3 9.08-8.3 14.38v.61l-5.88 3.39a12.09 12.09 0 0 0-5.47 9.469c0 3.48 2.45 4.9 5.46 3.15L123 80.059a12.07 12.07 0 0 0 5.47-9.46c-.03-3.49-2.47-4.9-5.47-3.16"/><path fill="#E0E0E0" d="m356.7 291.409 12.18-7.03 49.88 28.79 52.8-30.49-108.77-62.8-64.99 37.53z"/><path fill="#E0E0E0" d="M373.56 348.848c23.008 0 41.66-10.768 41.66-24.05s-18.652-24.05-41.66-24.05c-23.009 0-41.66 10.768-41.66 24.05s18.651 24.05 41.66 24.05M174.81 439.178l34.41-19.86 46.22 26.68 7.7-4.44 11.3 6.52a8.83 8.83 0 0 0 8 .15c2.12-1.23 2-3.29-.26-4.6l-11.3-6.52 38.52-22.24 11.3 6.53a8.8 8.8 0 0 0 7.95.14c2.13-1.23 2-3.28-.25-4.59l-11.3-6.53 11.55-6.67-46.25-26.68 26.7-15.42c2.27-1.31 2.27-3.43 0-4.74L171 277.148a9.07 9.07 0 0 0-8.21 0l-134.34 77.53c-2.27 1.31-2.27 3.44 0 4.74l138.15 79.76a9.06 9.06 0 0 0 8.21 0"/><path fill="#43A548" d="M457.08 270.77c-4.28-16.17-.83-33.5 4-43.39S475 209 483 209.85c7.5.8 8.81 10.11 1.74 18.07S465.29 251 462.35 261c-2 6.6-3 10.89-3 10.89z"/><path fill="#000" d="M457.08 270.77c-4.28-16.17-.83-33.5 4-43.39S475 209 483 209.85c7.5.8 8.81 10.11 1.74 18.07S465.29 251 462.35 261c-2 6.6-3 10.89-3 10.89z" opacity=".15"/><path fill="#fff" d="M457.59 267.061a.48.48 0 0 0 .34-.48c-.66-23 13.09-44.91 22.86-51.28a.489.489 0 0 0-.165-.881.49.49 0 0 0-.365.071c-9.95 6.49-24 28.78-23.29 52.12a.47.47 0 0 0 .145.339q.07.066.159.101.09.033.186.03z"/><path fill="#43A548" d="M458.27 281.999c.21-3.86 4.32-8.64 10.36-15.2 6.69-7.26 16.14-12 17.49-16.82 1.62-5.74-3.78-9.59-11.69-6.74s-19.7 17.19-18.2 34.43z"/><path fill="#fff" d="M456.87 280.75a.48.48 0 0 0 .33-.4c2.48-20.39 15.37-30.27 21.84-32.64a.47.47 0 0 0 .274-.249.49.49 0 0 0-.082-.532.47.47 0 0 0-.335-.157.5.5 0 0 0-.187.028c-7.15 2.63-19.93 12.62-22.47 33.43a.49.49 0 0 0 .63.52"/><path fill="#43A548" d="m306.6 224.13 44.28-25.61 50.29 29.1-44.29 25.62z"/><path fill="#fff" d="m306.6 224.13 44.28-25.61 50.29 29.1-44.29 25.62z" opacity=".7"/><path fill="#000" d="m395.989 224.62-42.98 24.87-45.1-26.11 42.97-24.86z" opacity=".1"/><path fill="#43A548" d="m356.88 286.491-50.28-29.1v-33.26l50.28 29.11z"/><path fill="#fff" d="m356.88 286.491-50.28-29.1v-33.26l50.28 29.11z" opacity=".6"/><path fill="#455A64" d="M350.72 275.28a3.19 3.19 0 0 1-1.361-2.57v-3.94l2.771 1.62h.18v3.78a1.33 1.33 0 0 1-.54 1.2 1 1 0 0 1-.441.11 1.26 1.26 0 0 1-.609-.2M351 271l-.201 1.38h-1v.29A2.79 2.79 0 0 0 351 274.9a.58.58 0 0 0 .59.06c.21-.11.32-.41.32-.81v-3.26zm-.391-.38.811-.15-1.64-1V272h.64z"/><path fill="#455A64" d="M350.84 278.27a.2.2 0 0 0 .084-.016.23.23 0 0 0 .119-.119.2.2 0 0 0 .017-.085v-3a.22.22 0 0 0-.22-.22.2.2 0 0 0-.088.014.2.2 0 0 0-.075.047.23.23 0 0 0-.068.159v3q0 .046.018.087a.2.2 0 0 0 .05.073q.033.03.075.047a.2.2 0 0 0 .088.013"/><path fill="#455A64" d="M352.119 279a.2.2 0 0 0 .111-.029.2.2 0 0 0 .079-.081.22.22 0 0 0 .022-.167.22.22 0 0 0-.102-.133l-2.57-1.48a.208.208 0 0 0-.3.08.223.223 0 0 0 .08.3l2.56 1.51q.06.015.12 0M343 273.921a.46.46 0 0 0 .25-.07.6.6 0 0 0 .26-.53v-.61a.22.22 0 1 0-.44 0v.61a.24.24 0 0 1 0 .15h-.15a1.3 1.3 0 0 1-.41-1v-3.94a.22.22 0 1 0-.44 0v3.94a1.68 1.68 0 0 0 .63 1.38.65.65 0 0 0 .3.07"/><path fill="#455A64" d="M339.399 267.071v-.13a1.871 1.871 0 0 1 3.05-1.76 6.26 6.26 0 0 1 2.84 4.91v.38zm1.13-1.7a1.67 1.67 0 0 0-.69 1.45l5 2.87a5.82 5.82 0 0 0-2.59-4.12 2.2 2.2 0 0 0-1.1-.35 1.2 1.2 0 0 0-.62.15M334.999 269.38a.22.22 0 0 0 .22-.22v-7.54a.22.22 0 1 0-.44 0v7.54a.22.22 0 0 0 .22.22"/><path fill="#455A64" d="M335.639 263.34h.09a.22.22 0 0 0 .12-.29l-.79-1.82-.88 1a.23.23 0 0 0-.063.163q.002.045.021.086a.22.22 0 0 0 .304.099.2.2 0 0 0 .068-.058l.42-.48.51 1.17a.22.22 0 0 0 .2.13M332.999 268.21a.22.22 0 0 0 .204-.135.2.2 0 0 0 .016-.085v-7.54a.22.22 0 1 0-.44 0V268c.003.057.027.11.068.15a.22.22 0 0 0 .152.06"/><path fill="#455A64" d="M333.6 262.17h.08a.224.224 0 0 0 .121-.12.226.226 0 0 0-.001-.17L333 260l-.88 1a.22.22 0 0 0-.029.247.223.223 0 0 0 .3.097.2.2 0 0 0 .069-.054l.41-.48.51 1.18a.23.23 0 0 0 .22.18"/><path fill="#43A548" d="m356.88 286.501 44.29-25.62v-33.26l-44.29 25.62z"/><path fill="#fff" d="m356.88 286.501 44.29-25.62v-33.26l-44.29 25.62z" opacity=".4"/><path fill="#37474F" d="m381.19 244.21-3.25 1.88v-5.06l3.25-1.88z"/><path fill="#455A64" d="m377.94 241.031-50.29-29.1 3.26-1.88 50.28 29.1z"/><path fill="#37474F" d="m376.03 236.169-3.25 1.88-1.85-1.05 3.27-1.89z"/><path fill="#FAFAFA" d="m394.83 248.551-11.51 6.65a1.12 1.12 0 0 0-.52.9v8c0 .66.47.93 1 .6l11.51-6.65a1.18 1.18 0 0 0 .52-.9v-8c.04-.66-.43-.93-1-.6"/><path fill="#455A64" d="m395.119 249.791-.39.23v7.06l.39-.22zM393.52 250.711l-.67.4v7.06l.67-.39zM391.929 251.631l-.39.23v7.06l.39-.22zM390.73 252.32l-.79.46v7.06l.79-.46zM388.74 253.471l-.39.23v7.06l.39-.22zM387.59 254.121l-.84.5v7.06l.84-.49zM385.549 255.311l-.39.23v7.06l.39-.22zM384.64 255.83l-.2.11v7.07l.2-.12zM386.279 254.93l-.2.11v7.07l.2-.12zM389.489 253.051l-.2.11v7.07l.2-.12zM391.25 252.039l-.2.11v7.06l.2-.11zM392.51 251.34l-.2.12v7.06l.2-.12zM394.219 250.301l-.19.11v7.07l.19-.12zM383.96 256.23l-.4.23v7.06l.4-.22z"/><path fill="#43A548" d="m302.27 185.27 44.28-25.61 50.28 29.1-44.28 25.61z"/><path fill="#fff" d="m302.27 185.27 44.28-25.61 50.28 29.1-44.28 25.61z" opacity=".8"/><path fill="#43A548" d="m352.55 247.63-50.28-29.1v-33.26l50.28 29.1z"/><path fill="#fff" d="m352.55 247.63-50.28-29.1v-33.26l50.28 29.1z" opacity=".7"/><path fill="#455A64" d="M346.389 236.42a3.2 3.2 0 0 1-.992-1.125 3.2 3.2 0 0 1-.368-1.455v-3.93l2.76 1.62h.18v3.78a1.3 1.3 0 0 1-.54 1.19.8.8 0 0 1-.43.12 1.2 1.2 0 0 1-.61-.2m.31-4.25-.21 1.39h-1v.28a2.77 2.77 0 0 0 1.14 2.19.6.6 0 0 0 .6.07.906.906 0 0 0 .32-.81V232zm-.4-.38.82-.14-1.65-1v2.43h.64z"/><path fill="#455A64" d="M346.499 239.411a.22.22 0 0 0 .22-.22v-3a.22.22 0 1 0-.44 0v3c0 .058.023.114.065.155a.22.22 0 0 0 .155.065"/><path fill="#455A64" d="M347.789 240.149a.23.23 0 0 0 .128-.043.22.22 0 0 0 .082-.107.22.22 0 0 0-.08-.3l-2.58-1.49a.22.22 0 0 0-.3.08.22.22 0 0 0 .08.3l2.58 1.49a.2.2 0 0 0 .09.07M338.62 235.049a.5.5 0 0 0 .24-.06.59.59 0 0 0 .27-.53v-.61a.2.2 0 0 0-.018-.086.22.22 0 0 0-.125-.12.2.2 0 0 0-.087-.014.22.22 0 0 0-.22.22v.76a.26.26 0 0 1-.14 0 1.293 1.293 0 0 1-.42-1v-3.94a.22.22 0 0 0-.065-.155.22.22 0 0 0-.375.155v3.94a1.7 1.7 0 0 0 .63 1.38.7.7 0 0 0 .31.06"/><path fill="#455A64" d="M335.06 228.211v-.13a2.1 2.1 0 0 1 .91-2 2.13 2.13 0 0 1 2.15.19 6.27 6.27 0 0 1 2.83 4.91v.38zm1.13-1.7a1.6 1.6 0 0 0-.68 1.44l5 2.88a5.9 5.9 0 0 0-2.59-4.13 2.24 2.24 0 0 0-1.11-.34 1.2 1.2 0 0 0-.62.15M330.66 230.519a.2.2 0 0 0 .086-.017.23.23 0 0 0 .12-.125.2.2 0 0 0 .014-.088v-7.54a.22.22 0 0 0-.44 0v7.54a.2.2 0 0 0 .013.088.23.23 0 0 0 .12.125.2.2 0 0 0 .087.017"/><path fill="#455A64" d="M331.31 224.47h.09a.23.23 0 0 0 .11-.3l-.79-1.82-.88 1a.2.2 0 0 0-.051.07.2.2 0 0 0-.018.085.22.22 0 0 0 .069.155.22.22 0 0 0 .155.063.22.22 0 0 0 .155-.063l.42-.48.51 1.17a.214.214 0 0 0 .23.12M328.609 229.351a.22.22 0 0 0 .22-.22v-7.54a.22.22 0 1 0-.439 0v7.54a.22.22 0 0 0 .219.22"/><path fill="#455A64" d="M329.26 223.309h.09a.22.22 0 0 0 .115-.122.22.22 0 0 0-.005-.168l-.78-1.83-.88 1a.223.223 0 0 0 .028.302.22.22 0 0 0 .302-.012l.42-.48.51 1.17a.23.23 0 0 0 .2.14"/><path fill="#43A548" d="m352.55 247.63 44.28-25.61v-33.26l-44.28 25.61z"/><path fill="#fff" d="m352.55 247.63 44.28-25.61v-33.26l-44.28 25.61z" opacity=".6"/><path fill="#37474F" d="m376.86 205.341-3.26 1.88v-5.05l3.26-1.88z"/><path fill="#455A64" d="m373.6 202.169-50.28-29.1 3.25-1.88 50.29 29.1z"/><path fill="#FAFAFA" d="m390.489 209.679-11.49 6.65a1.2 1.2 0 0 0-.52.9v8c0 .65.47.92 1 .59l11.52-6.63a1.141 1.141 0 0 0 .52-.9v-8c.01-.67-.45-.93-1.03-.61"/><path fill="#455A64" d="m390.78 210.93-.39.23v7.06l.39-.23zM389.19 211.85l-.68.4v7.06l.68-.4zM387.589 212.77l-.39.23v7.06l.39-.23zM386.39 213.449l-.781.47v7.06l.781-.47zM384.4 214.609l-.39.23v7.06l.39-.23zM383.26 215.26l-.84.5v7.06l.84-.5zM381.21 216.449l-.39.23v7.06l.39-.23zM380.31 216.971l-.201.11v7.06l.201-.11zM381.94 216.061l-.19.12v7.06l.19-.11zM385.15 214.189l-.19.11v7.06l.19-.11zM386.909 213.18l-.19.11v7.06l.19-.11zM388.179 212.48l-.2.11v7.06l.2-.11zM389.89 211.439l-.2.11v7.06l.2-.11zM379.619 217.371l-.39.23v7.06l.39-.23z"/><path fill="#43A548" d="m368.199 246.282 44.28-25.61 50.28 29.1-44.28 25.61z"/><path fill="#fff" d="m368.199 246.282 44.28-25.61 50.28 29.1-44.28 25.61z" opacity=".8"/><path fill="#000" d="m457.579 246.772-42.77 24.8-45.1-26.1 42.77-24.8z" opacity=".1"/><path fill="#43A548" d="m418.479 308.641-50.28-29.1v-33.26l50.28 29.1z"/><path fill="#fff" d="m418.479 308.641-50.28-29.1v-33.26l50.28 29.1z" opacity=".7"/><path fill="#455A64" d="M412.319 297.432a3.2 3.2 0 0 1-1.36-2.57v-3.94l2.77 1.62h.18v3.78a1.32 1.32 0 0 1-.54 1.2c-.136.07-.287.107-.44.11a1.26 1.26 0 0 1-.61-.2m.31-4.24-.2 1.38h-1v.29a2.78 2.78 0 0 0 1.14 2.19.6.6 0 0 0 .287.109.6.6 0 0 0 .303-.049c.21-.11.32-.41.32-.81v-3.3zm-.39-.38.81-.15-1.64-1v2.44h.64z"/><path fill="#455A64" d="M412.429 300.421a.2.2 0 0 0 .087-.014.2.2 0 0 0 .075-.047.2.2 0 0 0 .05-.073.2.2 0 0 0 .018-.086v-3q0-.046-.018-.087a.21.21 0 0 0-.125-.12.2.2 0 0 0-.087-.013.22.22 0 0 0-.22.22v3c0 .058.023.114.065.155a.22.22 0 0 0 .155.065"/><path fill="#455A64" d="M413.72 301.16a.218.218 0 0 0 .202-.304.22.22 0 0 0-.092-.106l-2.57-1.49a.22.22 0 0 0-.3.08.2.2 0 0 0-.032.083.22.22 0 0 0 .112.227l2.57 1.48a.23.23 0 0 0 .11.03M404.549 296.061c.087 0 .173-.02.25-.06a.6.6 0 0 0 .26-.53v-.61a.22.22 0 0 0-.064-.156.22.22 0 0 0-.376.156v.61c0 .09 0 .14-.05.15s-.06 0-.14 0a1.33 1.33 0 0 1-.41-1v-3.94a.22.22 0 0 0-.064-.156.22.22 0 0 0-.376.156v3.94a1.72 1.72 0 0 0 .62 1.38c.11.05.23.071.35.06"/><path fill="#455A64" d="M400.999 289.221v-.13a1.868 1.868 0 0 1 2.008-2.197c.384.035.748.188 1.042.437a6.255 6.255 0 0 1 2.84 4.91v.38zm1.13-1.7a1.65 1.65 0 0 0-.69 1.45l5 2.87a5.85 5.85 0 0 0-2.59-4.13 2.3 2.3 0 0 0-1.1-.34 1.2 1.2 0 0 0-.62.15M396.599 291.531a.22.22 0 0 0 .156-.064.22.22 0 0 0 .064-.156v-7.54a.2.2 0 0 0-.014-.087.2.2 0 0 0-.047-.075.219.219 0 0 0-.365.075.2.2 0 0 0-.014.087v7.54a.22.22 0 0 0 .22.22"/><path fill="#455A64" d="M397.239 285.491h.09a.2.2 0 0 0 .072-.048.2.2 0 0 0 .065-.157.2.2 0 0 0-.017-.085l-.79-1.83-.88 1a.22.22 0 0 0-.063.162.22.22 0 0 0 .152.202q.043.014.088.009a.218.218 0 0 0 .153-.083l.42-.48.51 1.17a.2.2 0 0 0 .079.1.2.2 0 0 0 .121.04M394.549 290.361a.22.22 0 0 0 .22-.22v-7.54a.22.22 0 0 0-.064-.156.22.22 0 0 0-.24-.047.22.22 0 0 0-.119.119.2.2 0 0 0-.017.084v7.54c0 .058.023.114.065.155a.22.22 0 0 0 .155.065"/><path fill="#455A64" d="M395.199 284.321h.08a.2.2 0 0 0 .072-.048.2.2 0 0 0 .065-.157.2.2 0 0 0-.017-.085l-.79-1.82-.88 1a.22.22 0 0 0 .16.375c.06 0 .117-.024.16-.065l.41-.48.51 1.17a.23.23 0 0 0 .23.11"/><path fill="#43A548" d="m418.479 308.641 44.28-25.61v-33.26l-44.28 25.61z"/><path fill="#fff" d="m418.479 308.641 44.28-25.61v-33.26l-44.28 25.61z" opacity=".6"/><path fill="#37474F" d="m442.789 266.361-3.26 1.88v-5.06l3.26-1.88z"/><path fill="#455A64" d="m439.529 263.181-50.28-29.1 3.26-1.88 50.28 29.1z"/><path fill="#37474F" d="m437.629 258.31-3.25 1.89-1.85-1.06 3.27-1.89z"/><path fill="#FAFAFA" d="m456.429 270.701-11.51 6.65a1.13 1.13 0 0 0-.52.9v8c0 .66.46.93 1 .6l11.6-6.65a1.17 1.17 0 0 0 .52-.9v-8c-.05-.66-.52-.93-1.09-.6"/><path fill="#455A64" d="m456.719 271.941-.4.23v7.06l.4-.23zM455.119 272.861l-.67.4v7.06l.67-.39zM453.529 273.781l-.4.23.01 7.06.39-.22zM452.319 274.461l-.78.47v7.06l.78-.46zM450.339 275.621l-.39.23v7.06l.39-.22zM449.19 276.271l-.84.5v7.06l.84-.5zM447.149 277.461l-.39.23v7.06l.39-.23zM446.239 277.98l-.2.11v7.07l.2-.12zM447.879 277.08l-.2.11v7.06l.2-.11zM451.089 275.201l-.2.11v7.06l.2-.11zM452.849 274.191l-.2.11v7.06l.2-.11zM454.109 273.49l-.2.11.01 7.07.19-.12zM455.819 272.451l-.19.11v7.07l.19-.12zM445.559 278.381l-.4.23v7.06l.4-.22z"/><path fill="#43A548" d="m363.869 207.421 44.28-25.62 50.28 29.11-44.28 25.61z"/><path fill="#fff" d="m363.869 207.421 44.28-25.62 50.28 29.11-44.28 25.61z" opacity=".7"/><path fill="#000" d="m458.43 210.912-41.07 23.75-45.76-26.48 41.08-23.76z" opacity=".1"/><path fill="#43A548" d="m414.149 269.782-50.28-29.1v-33.26l50.28 29.1z"/><path fill="#fff" d="m414.149 269.782-50.28-29.1v-33.26l50.28 29.1z" opacity=".6"/><path fill="#455A64" d="M407.999 258.571a3.21 3.21 0 0 1-1.36-2.58v-3.93l2.76 1.62h.18v3.79a1.32 1.32 0 0 1-.54 1.19.83.83 0 0 1-.43.12 1.2 1.2 0 0 1-.61-.21m.31-4.25-.21 1.38h-1v.3a2.8 2.8 0 0 0 1.14 2.19.64.64 0 0 0 .6.07.92.92 0 0 0 .32-.81v-3.27zm-.4-.38.82-.14-1.65-1v2.43h.64z"/><path fill="#455A64" d="M408.099 261.561q.045 0 .087-.017a.2.2 0 0 0 .072-.051.22.22 0 0 0 .061-.162v-3a.22.22 0 1 0-.44 0v3a.22.22 0 0 0 .22.23"/><path fill="#455A64" d="M409.389 262.3a.23.23 0 0 0 .109-.03.24.24 0 0 0 .081-.08.239.239 0 0 0-.08-.31l-2.58-1.48a.22.22 0 0 0-.166-.021.218.218 0 0 0-.054.401l2.57 1.49q.056.03.12.03M400.219 257.202a.5.5 0 0 0 .24-.06.6.6 0 0 0 .27-.54v-.6q0-.046-.018-.087a.2.2 0 0 0-.05-.073.214.214 0 0 0-.162-.06.22.22 0 0 0-.203.135.2.2 0 0 0-.017.085v.75a.2.2 0 0 1-.07.015.2.2 0 0 1-.07-.015 1.3 1.3 0 0 1-.42-1v-3.93a.22.22 0 1 0-.44 0v3.93a1.697 1.697 0 0 0 .63 1.39.7.7 0 0 0 .31.06"/><path fill="#455A64" d="M396.66 250.36v-.13a2.1 2.1 0 0 1 .177-1.126c.16-.353.413-.655.733-.874a2.15 2.15 0 0 1 2.15.19 6.31 6.31 0 0 1 2.83 4.91v.39zm1.13-1.7a1.6 1.6 0 0 0-.68 1.44l5 2.88a5.88 5.88 0 0 0-2.59-4.13 2.24 2.24 0 0 0-1.11-.34 1.2 1.2 0 0 0-.62.15M392.259 252.662a.22.22 0 0 0 .22-.22v-7.54a.22.22 0 1 0-.44 0v7.54a.22.22 0 0 0 .22.22"/><path fill="#455A64" d="M392.909 246.622q.046.013.09 0a.22.22 0 0 0 .115-.123.22.22 0 0 0-.005-.167l-.79-1.82-.88 1a.21.21 0 0 0-.05.239.2.2 0 0 0 .05.071.22.22 0 0 0 .31 0l.42-.49.51 1.18a.21.21 0 0 0 .23.11M390.209 251.502q.046 0 .087-.018a.2.2 0 0 0 .073-.05.217.217 0 0 0 .06-.162v-7.54a.22.22 0 1 0-.44 0v7.54a.2.2 0 0 0 .014.087.2.2 0 0 0 .047.075.2.2 0 0 0 .073.05.2.2 0 0 0 .086.018"/><path fill="#455A64" d="M390.859 245.452a.15.15 0 0 0 .09 0 .2.2 0 0 0 .119-.121.2.2 0 0 0-.009-.169l-.78-1.82-.88 1a.21.21 0 0 0 0 .31.22.22 0 0 0 .31 0l.42-.48.51 1.17a.21.21 0 0 0 .22.11"/><path fill="#43A548" d="m414.149 269.78 44.28-25.62v-33.25l-44.28 25.61z"/><path fill="#fff" d="m414.149 269.78 44.28-25.62v-33.25l-44.28 25.61z" opacity=".4"/><path fill="#000" d="m458.429 222.02-41.07 23.76v-11.12l41.07-23.75z" opacity=".1"/><path fill="#37474F" d="m438.449 227.491-3.25 1.88v-5.05l3.25-1.88z"/><path fill="#455A64" d="m435.199 224.322-50.28-29.1 3.25-1.88 50.28 29.1z"/><path fill="#FAFAFA" d="m452.09 231.83-11.51 6.65a1.18 1.18 0 0 0-.52.9v8c0 .66.47.93 1 .6l11.51-6.65a1.13 1.13 0 0 0 .52-.9v-8c.04-.66-.43-.93-1-.6"/><path fill="#455A64" d="m452.379 233.08-.39.22v7.07l.39-.23zM450.789 234l-.68.4v7.06l.68-.4zM449.189 234.922l-.39.23v7.06l.39-.23zM447.989 235.602l-.78.46v7.07l.78-.47zM445.999 236.762l-.39.23v7.06l.39-.23zM444.86 237.41l-.84.5v7.06l.84-.5zM442.809 238.602l-.39.22v7.07l.39-.23zM441.899 239.121l-.19.11v7.06l.19-.11zM443.54 238.211l-.19.12v7.06l.19-.11zM446.75 236.332l-.19.12v7.06l.19-.11zM448.509 235.32l-.19.12v7.06l.19-.11zM449.769 234.631l-.19.11v7.06l.19-.11zM451.489 233.592l-.2.11v7.06l.2-.11zM441.219 239.521l-.39.23v7.06l.39-.23z"/><path fill="#43A548" d="m374.299 174.821 44.28-25.61 50.28 29.1-44.28 25.61z"/><path fill="#fff" d="m374.299 174.821 44.28-25.61 50.28 29.1-44.28 25.61z" opacity=".8"/><path fill="#43A548" d="m424.579 237.18-50.28-29.1v-33.26l50.28 29.1z"/><path fill="#fff" d="m424.579 237.18-50.28-29.1v-33.26l50.28 29.1z" opacity=".7"/><path fill="#455A64" d="M418.42 226a3.2 3.2 0 0 1-.99-1.121 3.2 3.2 0 0 1-.37-1.449v-3.94l2.76 1.62h.18v3.78a1.28 1.28 0 0 1-.54 1.19.8.8 0 0 1-.43.12 1.24 1.24 0 0 1-.61-.2m.31-4.24-.2 1.38h-1v.29a2.776 2.776 0 0 0 1.14 2.18.58.58 0 0 0 .6.07.92.92 0 0 0 .32-.81v-3.26zm-.39-.39.81-.14-1.65-1v2.43h.64z"/><path fill="#455A64" d="M418.529 229.001a.22.22 0 0 0 .155-.065.22.22 0 0 0 .065-.155v-3a.2.2 0 0 0-.014-.087.219.219 0 0 0-.412 0 .2.2 0 0 0-.014.087v3a.22.22 0 0 0 .22.22"/><path fill="#455A64" d="M419.819 229.702a.222.222 0 0 0 .203-.304.2.2 0 0 0-.093-.106l-2.57-1.49a.23.23 0 0 0-.171-.023.23.23 0 0 0-.139.103.2.2 0 0 0-.025.082.227.227 0 0 0 .048.163.3.3 0 0 0 .067.055l2.57 1.49q.051.03.11.03M410.649 224.6a.47.47 0 0 0 .24-.06.59.59 0 0 0 .27-.53v-.61a.22.22 0 1 0-.44 0v.6c0 .09 0 .14-.05.15a.3.3 0 0 1-.14 0 1.3 1.3 0 0 1-.41-1v-3.94a.22.22 0 0 0-.22-.22.2.2 0 0 0-.087.014.2.2 0 0 0-.075.047.23.23 0 0 0-.068.159v3.94a1.683 1.683 0 0 0 .63 1.38.7.7 0 0 0 .35.07"/><path fill="#455A64" d="M407.099 217.762v-.13a1.87 1.87 0 0 1 .902-1.9 1.865 1.865 0 0 1 2.098.14 6.28 6.28 0 0 1 2.84 4.91v.38zm1.13-1.7a1.64 1.64 0 0 0-.69 1.44l5 2.88a5.84 5.84 0 0 0-2.59-4.13 2.2 2.2 0 0 0-1.11-.34 1.15 1.15 0 0 0-.61.15M402.699 220.07q.045 0 .086-.017a.22.22 0 0 0 .12-.125.2.2 0 0 0 .014-.088v-7.54a.22.22 0 0 0-.065-.155.22.22 0 0 0-.155-.065.2.2 0 0 0-.088.014.219.219 0 0 0-.142.206v7.54q0 .046.017.088a.2.2 0 0 0 .05.075.2.2 0 0 0 .075.05.2.2 0 0 0 .088.017"/><path fill="#455A64" d="M403.339 214.001h.09a.24.24 0 0 0 .12-.3l-.79-1.82-.88 1a.22.22 0 0 0 .028.301.22.22 0 0 0 .302-.011l.42-.48.51 1.17q.027.06.08.099a.23.23 0 0 0 .12.041M400.649 218.901a.22.22 0 0 0 .156-.064.22.22 0 0 0 .064-.156v-7.54a.23.23 0 0 0-.046-.193.2.2 0 0 0-.08-.062.228.228 0 0 0-.322.153.2.2 0 0 0-.002.102v7.54a.22.22 0 0 0 .143.206.2.2 0 0 0 .087.014"/><path fill="#455A64" d="M401.289 212.86h.09a.22.22 0 0 0 .12-.29l-.79-1.83-.88 1a.22.22 0 0 0 .028.301.22.22 0 0 0 .302-.011l.42-.48.51 1.17a.22.22 0 0 0 .2.14"/><path fill="#43A548" d="m424.579 237.181 44.28-25.61v-33.26l-44.28 25.61z"/><path fill="#fff" d="m424.579 237.181 44.28-25.61v-33.26l-44.28 25.61z" opacity=".6"/><path fill="#37474F" d="m448.889 194.89-3.26 1.88v-5.05l3.26-1.88z"/><path fill="#455A64" d="m445.63 191.72-50.28-29.1 3.26-1.88 50.28 29.1z"/><path fill="#FAFAFA" d="m462.529 199.241-11.53 6.64a1.151 1.151 0 0 0-.52.9v8c0 .65.46.92 1 .6l11.52-6.65a1.18 1.18 0 0 0 .52-.9v-8c.05-.65-.42-.92-.99-.59"/><path fill="#455A64" d="m462.809 200.48-.39.23v7.06l.39-.23zM461.219 201.4l-.67.4v7.06l.67-.4zM459.629 202.32l-.4.23v7.06l.4-.23zM458.419 203l-.78.47v7.06l.78-.47zM456.439 204.16l-.39.23v7.06l.39-.23zM455.289 204.811l-.84.5v7.06l.84-.5zM453.249 206l-.39.23v7.06l.39-.23zM452.339 206.521l-.2.11v7.06l.2-.11zM453.979 205.621l-.2.11v7.06l.2-.11zM457.189 203.74l-.2.11v7.06l.2-.11zM458.939 202.73l-.19.11v7.06l.19-.11zM460.209 202.031l-.2.11v7.06l.2-.11zM461.919 200.99l-.19.11v7.06l.19-.11zM451.649 206.922l-.39.23v7.06l.39-.23z"/><path fill="#263238" d="M389.909 160.231a4.7 4.7 0 0 1 3.92 1.36 9.3 9.3 0 0 1 2 2.65 39.6 39.6 0 0 1 2.23 6.89c.7 2.31 1.75 4.66 3.71 6.08.76.55 1.72 1.07 1.87 2a1.933 1.933 0 0 1-1 1.83 4.74 4.74 0 0 1-2.14.5 3.35 3.35 0 0 0 1.13 1.74 2.25 2.25 0 0 1 .85 1.84c-.14.82-1 1.26-1.86 1.43a7.51 7.51 0 0 1-7.27-2.79 14.68 14.68 0 0 1-2.66-11.52c.384-1.603.595-3.242.63-4.89a5.93 5.93 0 0 0-1.89-4.4c-.44-.36-1-.7-1.06-1.27a1.39 1.39 0 0 1 .95-1.25 3 3 0 0 1 .59-.2"/><path fill="#FFA8A7" d="M368.29 174.761s-4.17-1.08-7.38 5.92c-1.78 3.88-7.91 18.32-7.91 18.32s-8.18.54-13.8.43c-2.47-.05-4.45-.22-5-.62-.95-.49-1.4-1.79-1.72-2.67a10.1 10.1 0 0 1-.25-3.73c-.07-1.07-1.63-.37-2.09 1.36-.34 1.27-.13 2.43-.61 2.68a11.2 11.2 0 0 1-2.23-.57c-1-.44-2.87-1.11-4-.37a1.38 1.38 0 0 0-.6 1.13 5.2 5.2 0 0 1-.06 1.88 3.9 3.9 0 0 0-.3.89c0 .41.21.69.26 1.08.06.54-.44 1-.4 1.57 0 .39.32.72.4 1.11.06.24 0 .51.07.75a1.76 1.76 0 0 0 1 1 12.6 12.6 0 0 0 4.72 1.14c1.4.15 3.18 0 4.73 0 .51 0 3.26 0 6.29.34 6.65.69 16.31 1.88 18.31.82 2.77-1.47 12-22.49 12-22.49 1.13-7.73-1.43-9.97-1.43-9.97"/><path fill="#455A64" d="M368.289 174.76c-2.08-.38-4.19.47-6.32 3.56s-7.44 15-7.44 15a10.73 10.73 0 0 0 10.28 5.58l3.67-7.9zM387.31 205.451a41.4 41.4 0 0 1 7.13 14.7c3.22 13-1.83 40.84-1.83 40.84.16 1.88 2.31 5.6 3.12 13.9.95 9.81-1.73 36.11-1.73 36.11a6.26 6.26 0 0 1-6.35.13s-6.87-38.59-8.1-48.35c-1.07-8.51-3.26-26.19-3.26-26.19l-3 26.56s.41 4.68.76 8.32c.56 5.74-6.63 34.21-6.63 34.21a7.9 7.9 0 0 1-6.33-.13s-.87-36.87-1.39-43.79c-.53-7.11-.29-24 1.08-37.21.41-4 2.43-16.26 3.13-19.67z"/><path fill="#263238" d="M369.48 301.571c.69-4.5 3.26-10.21 1.38-10.78l-.53 2.37s-1.7 1.18-5.15.84a6.48 6.48 0 0 1-4.49-2l-.05-1.61c-1 .25-1 .95-.79 3.84s.29 10.35.3 12.54a8.29 8.29 0 0 1-2.83 5.47 39.1 39.1 0 0 1-8.92 6.58c-1 .55-3.43 1.48-2.74 3 .225.431.526.817.89 1.14a8.6 8.6 0 0 0 4.88 1.78h.57a12.7 12.7 0 0 0 7.33-2.89c1.3-1.21 3.62-2.85 5.28-3.12s4.06-1.85 4.26-2.91a14.4 14.4 0 0 0 .07-4 19 19 0 0 1-.17-1.9c-.032-2.8.206-5.596.71-8.35"/><path fill="#37474F" d="m376.26 236.562-1.17-8.06a20 20 0 0 1-9.481-3.07 12.08 12.08 0 0 0 7.94 4.44l.741 7.21-.75 22.79z"/><path fill="#263238" d="M394.47 315c.07-3.55.93-12.08 1.15-14.81s-.49-2.5-.49-2.5l-.13 1.68s-1.29 1.14-4.37 1.24a9.8 9.8 0 0 1-5.05-1.09c-.1-.73-.27-1.55-.27-1.55-.91.51-.22 2.41.75 7.64s1.38 5.23.67 12.23-1 10.59-.74 12.62l.15.06a10.8 10.8 0 0 0 1.07 3.57c1.45 3.07 4.89 1.42 6.2-.39a7.77 7.77 0 0 0 1.74-4.47q.046-.875 0-1.75c-.06-2.11-.43-3.33-.64-5.25l-.05-.6v-.42c0-.15-.05-2.69.01-6.21"/><path fill="#455A64" d="M363.789 196.001c.06 2.37.38 8 .38 8 9.49 6.79 23.45 1.2 23.45 1.2l2.38-13.63s-4.86-7.18.06-14.5l-7.52-1.68-9-.77-5.18.14c-1.21 2.35-4.62 7.71-5.63 10.11s-3.11 6.01 1.06 11.13"/><path fill="#43A548" d="m391.22 205.001 1.29-12.49s-6.73-8.16-1.81-15.47l-6.49-1.29c-1 2.54-6.63 8.1-12.44 8.89-2.72-2.63-.24-7.81.93-10l-4.41.12a56 56 0 0 0-5.92 9.91c-1 2.45-2.91 7.12 1.26 12.28.06 2.37-.07 7.09-.07 7.09l-3 16.31c21.35 7.48 34.39-.73 34.39-.73a74 74 0 0 0-3.73-14.62"/><path fill="#FAFAFA" d="M363.56 202.26c.87 1.8 9.17 2.4 14.66 2.38s13.27-2.28 13.27-2.28l.28-2.64s-8 2.08-13.47 2.09-13.8-.58-14.67-2.39zM392.2 207.911c-.54-1.64-1-2.89-1-2.89-2.39 1.62-8.17 2.53-13.07 2.55-5.49 0-13.8-.58-14.66-2.39l-.08 2.83c.87 1.81 9.17 2.4 14.67 2.39 4.52-.04 9.94-.53 14.14-2.49"/><path fill="#000" d="M371.31 223c.86.12 1.7.22 2.52.29a121 121 0 0 1-2.64-16 125 125 0 0 1 .58-22.64c-2.55 5.7-2.62 24.64-.46 38.35" opacity=".15"/><path fill="#43A548" d="m343.449 202.172 24.41 2.27 11.73 27.88-23.31-2.76z"/><path fill="#000" d="m343.449 202.172 24.41 2.27 11.73 27.88-23.31-2.76z" opacity=".4"/><path fill="#000" d="M365.59 221.811a5.54 5.54 0 0 0 4.28 3.6 12.25 12.25 0 0 0 6.39-1l-1-2.33zM350.999 205.23l-.34-.86c-.19-.47 1.18-.72 3.06-.56l3.59.32c1.88.17 3.56.69 3.74 1.17l.35.86z" opacity=".15"/><path fill="#455A64" d="M348.81 202.14c-.12-.3.43-.47 1.21-.39l1.43.15s-.73-1.86 2.41-1.69a4.82 4.82 0 0 1 4.17 2.25l1.53.17c.66.017 1.293.264 1.79.7l.26.52-12.61-1.16s-.07-.26-.19-.55"/><path fill="#37474F" d="M360.909 205.411c-.15-.4-1.34-.82-2.81-1l-.06-.14c-.15-.41 0-.7.87-.62v-.35l-8.71-.74.41.31c1.15.09 1.63.16 1.92.89q.042.081.07.17c-1.36 0-2.25.21-2.1.6s.34.86.34.86l10.39.93z"/><path fill="#FFA8A7" d="M398.559 185.861c-2-7.81-5-8.53-9.52-9-4.91 8.13.65 15.35.65 15.35l3.68 13.06a138 138 0 0 1-11.93 8.15c-.75.45-1.42.84-2 1.14s-1.66-.18-2.39-.35a17.4 17.4 0 0 0-5.08-.13c-1.45 0-2.25-.39-2.39-.06a1.663 1.663 0 0 0 1 2c.842.368 1.725.633 2.63.79a15.4 15.4 0 0 1-4.76 1.25c-3.77.38-5.12 1.57-1.74 5 2.12 2.17 5.14 2.56 11.48-.53 1.24-.61 3.8-2 6.2-3.2 1.12-.58 2.21-1.12 3.11-1.54 6.69-3.12 15.6-6.38 15.83-9.72s-2.68-13.99-4.77-22.21"/><path fill="#F28F8F" d="M397.43 204.392a5.306 5.306 0 0 0-4.06.87l-.28-1s2.62-1.26 4.34.13"/><path fill="#455A64" d="M388.809 176.682c2.81.33 4.84.66 6.11 1.71s2.5 2.52 4.52 9.73 2.26 8.16 2.26 8.16-2.93 4.72-10.36 3.72l-3.9-10.4s-3.27-9.15 1.37-12.92"/><path fill="#263238" d="m365.429 160.172-.43-.17a5.05 5.05 0 0 1-2-1.82 4.55 4.55 0 0 1-.44-3.41 6.65 6.65 0 0 1 2.58-3.49q.492-.314.91-.72a8.3 8.3 0 0 0 1.28-1.81l.53-.91c.3-.51.58-1 .89-1.52a2.8 2.8 0 0 1 1-.82 13.4 13.4 0 0 1 2.44-1.25 13.9 13.9 0 0 1 5.72-.9c2.555.124 5.039.88 7.23 2.2 2.31 1.4 4 3 4.68 5.63a27.5 27.5 0 0 1 1.27 8.9c-.13 2.08-.79 5.48-2.45 7.5-3.07 3.72-4.45 3.3-5.5 5.91-.34.87-1.66-.45-2.35-.68-2.31-.74-4.73-1.35-7-2.15a6.33 6.33 0 0 1-2.83-2.91c-.36-.6-.67-1.23-1-1.86a17.8 17.8 0 0 0-2.68-4.58 3.1 3.1 0 0 0-.92-.77c-.36-.16-.64-.26-.93-.37"/><path fill="#FFA8A7" d="M368.55 151.771c-1.7.83-3.17 1.94-3.69 10.49-.43 7.25 1.76 9.23 2.9 9.85s3.43.49 5.67.3l-.17 3.31s-3.46 4.83.83 5.37c6 .75 8.77-5.12 8.77-5.12l.66-8.76s1.5 1.33 3.38-.45 1.78-4.24.76-5.15c-1.52-1.35-3.08-1.1-4.25.86-4.74-.25-6.2-6.39-6.32-9.7-2.46-2.86-6.09 4.07-8.54-1"/><path fill="#263238" d="m382.579 165.191 1.34-3.64c-1-.42-2.45-.24-2.58.83a2.55 2.55 0 0 0 1.24 2.81M366.63 151.1s.8 6.87 10.27 7.61l.43-7.71zM373.509 161.002a.944.944 0 0 0 1.021 1.016.94.94 0 0 0 .049-1.866 1 1 0 0 0-1.07.85"/><path fill="#B16668" d="m374.27 166.611-3.27 1.13a1.69 1.69 0 0 0 .839 1.012 1.68 1.68 0 0 0 1.311.098 1.78 1.78 0 0 0 1.017-.891c.209-.419.246-.903.103-1.349"/><path fill="#263238" d="m365.999 157.771 1.91-1.11a1.06 1.06 0 0 0-.642-.533 1.05 1.05 0 0 0-.828.103 1.163 1.163 0 0 0-.44 1.54M366.089 160.131a1 1 0 0 0 .8 1.1 1.003 1.003 0 0 0 1.07-.85.93.93 0 0 0-.185-.698.95.95 0 0 0-1.323-.177.94.94 0 0 0-.362.625"/><path fill="#F28F8F" d="m370.9 160.012-.43 5.83-2.76-1.11zM373.43 172.411c2.31-.11 7.11-1.07 8-2.87a4.82 4.82 0 0 1-1.851 2.24c-1.5 1.08-6.22 2.06-6.22 2.06z"/><path fill="#43A548" d="M391.67 157.16a14.5 14.5 0 0 1-1 4q-.472-.585-1-1.12a24.4 24.4 0 0 0-7-4.84c-6-2.83-13.43-3.78-19.35-2.14a13.6 13.6 0 0 1 1.1-3.39 14.336 14.336 0 0 1 16.782-7.777 14.344 14.344 0 0 1 10.488 15.237z"/><path fill="#43A548" d="M385.48 142.881c-.72-.35-4.33-1.43-4.62-1.52-1.87-.57-4.88-.53-8 2a14.52 14.52 0 0 0-4.84 7.81l3.84 1.2 1.22.12c.46-2.82 4.19-8.9 9.41-9.13a6 6 0 0 1 .74 0 7 7 0 0 1 2 .42 19 19 0 0 1 2 1.63 3.23 3.23 0 0 0-1.75-2.53"/><path fill="#fff" d="M385.48 142.881c-.72-.35-4.33-1.43-4.62-1.52-1.87-.57-4.88-.53-8 2a14.52 14.52 0 0 0-4.84 7.81l3.84 1.2 1.22.12c.46-2.82 4.19-8.9 9.41-9.13a6 6 0 0 1 .74 0 7 7 0 0 1 2 .42 19 19 0 0 1 2 1.63 3.23 3.23 0 0 0-1.75-2.53" opacity=".45"/><path fill="#43A548" d="M373.11 152.511c.54-3.29 5.55-11.06 12.17-8.72a20 20 0 0 1 2 1.63 3.24 3.24 0 0 0-1.84-2.54c-1.72-.83-5.18-1.24-8.76 1.7a14.54 14.54 0 0 0-4.83 7.81z"/><path fill="#000" d="M373.11 152.511c.54-3.29 5.55-11.06 12.17-8.72a20 20 0 0 1 2 1.63 3.24 3.24 0 0 0-1.84-2.54c-1.72-.83-5.18-1.24-8.76 1.7a14.54 14.54 0 0 0-4.83 7.81z" opacity=".3"/><path fill="#43A548" d="M382.759 154.102a16.1 16.1 0 0 0-6.38-5.67c-2.94-1.58-9-1.66-11.68-1.62-4.74.08-5.87 1.08-5.93 1.78 0 .17-.09.93-.11 1.11a.73.73 0 0 0 .1.45c.71 1.07 4.54 2.94 4.54 2.94 5.92-1.64 13.32-.69 19.35 2.14z"/><path fill="#000" d="M382.759 154.102a16.1 16.1 0 0 0-6.38-5.67c-2.94-1.58-9-1.66-11.68-1.62-4.74.08-5.87 1.08-5.93 1.78 0 .17-.09.93-.11 1.11a.73.73 0 0 0 .1.45c.71 1.07 4.54 2.94 4.54 2.94 5.92-1.64 13.32-.69 19.35 2.14z" opacity=".15"/><path fill="#43A548" d="M382.649 155.231c-6-2.83-13.43-3.78-19.35-2.14 0 0-3.83-1.87-4.54-2.94-.38-.6 0-2.12 5.83-2.21 2.7 0 8.74 0 11.68 1.61a16.1 16.1 0 0 1 6.38 5.68"/><path fill="#000" d="M382.649 155.231c-6-2.83-13.43-3.78-19.35-2.14 0 0-3.83-1.87-4.54-2.94-.38-.6 0-2.12 5.83-2.21 2.7 0 8.74 0 11.68 1.61a16.1 16.1 0 0 1 6.38 5.68" opacity=".3"/><path fill="#F28F8F" d="M372.26 168.76v.13c.3.09.619.09.92 0a1.772 1.772 0 0 0 1.16-1.55 1.5 1.5 0 0 0-.46-.09 1.593 1.593 0 0 0-1.62 1.51"/><path fill="#000" d="M126.7 347.522v19.75l42.3-24.4a59.4 59.4 0 0 1 2.28-15v-.06a69 69 0 0 1 2.56-7.46z"/><path fill="#43A548" d="M129.64 180.211a3.61 3.61 0 0 0-3.7-.29l-85.52 49.35c-1.18.7-1.92 2.29-1.92 4.54v59c3.64-3.08 8.44-4 13.84-2.45a26 26 0 0 1 5.55 2.43c5.63 3.21 10.85 8.61 15.11 15.08a69 69 0 0 1 2.31 3.74l85.49-49.34v-64z"/><path fill="#000" d="M129.64 180.211a3.61 3.61 0 0 0-3.7-.29l-85.52 49.35c-1.18.7-1.92 2.29-1.92 4.54v59c3.64-3.08 8.44-4 13.84-2.45a26 26 0 0 1 5.55 2.43c5.63 3.21 10.85 8.61 15.11 15.08a69 69 0 0 1 2.31 3.74l85.49-49.34v-64z" opacity=".3"/><path fill="#43A548" d="M173.44 146.301a3.63 3.63 0 0 0-3.7-.3c-1.16.68-87.75 50.66-92.32 53.3l-.16.1c-1.14.72-1.87 2.29-1.87 4.51v107.7a69.5 69.5 0 0 1 4.24 8.71l20.37 11.76v-28.08l92.43-25.32v-121.43z"/><path fill="#fff" d="m192.4 157.251-92.4 53.36-19-11a3.62 3.62 0 0 0-3.62-.33c4.57-2.64 91.16-52.62 92.32-53.3a3.6 3.6 0 0 1 3.7.3z" opacity=".3"/><path fill="#37474F" d="M98.6 328.052a3.66 3.66 0 0 1-1.2-2.39c-.18-1.27-.42-2.55-.69-3.82a2.54 2.54 0 0 1 .13-1.87l.38-.22c.36-.21.4-1.05.07-2l-2.41-7c-.36-1-1-1.8-1.5-1.71s-1.21-.65-1.7-1.64c-.58-1.21-1.21-2.4-1.86-3.56a3.23 3.23 0 0 1-.5-2.55 2.69 2.69 0 0 0-.63-2.37l-4.19-5.63c-.52-.71-1.12-1-1.45-.83l-.73.42a2.17 2.17 0 0 1-1.16-.68 43 43 0 0 0-2.54-2.38 3.68 3.68 0 0 1-1.28-2.37 2.73 2.73 0 0 0-1.29-2.07l-4.84-2.79a1 1 0 0 0-1-.11l-2.38 1.37a16 16 0 0 0-1.76-.35 2.4 2.4 0 0 1-1.69-1.5 1.63 1.63 0 0 0-1.62-1.22l-4.19.81a.8.8 0 0 0-.27.1l-16.85 9.66a1.16 1.16 0 0 0-.44 1.25s-4.78 2.76-5.14 3a.85.85 0 0 0-.34.36l-2.42 4.18a2.25 2.25 0 0 0 .19 2.26 3.12 3.12 0 0 1 .4 2.5 28 28 0 0 0-.7 3l-1.71 1a1.39 1.39 0 0 0-.44 1.21v6.44a2.84 2.84 0 0 0 .95 2.28 3.62 3.62 0 0 1 1.2 2.34c.18 1.28.41 2.57.69 3.85a2.6 2.6 0 0 1-.13 1.87l-.36.21c-.35.21-.38 1-.06 2l2.42 7c.36 1 1 1.8 1.46 1.72s1.17.66 1.65 1.65c.59 1.24 1.23 2.45 1.89 3.64a3.21 3.21 0 0 1 .53 2.5c-.26.44 0 1.48.66 2.32l4.18 5.63c.53.71 1.13 1.05 1.45.87l.62-.43c.464.106.88.359 1.19.72.85.86 1.72 1.68 2.61 2.45a3.55 3.55 0 0 1 1.28 2.26 2.64 2.64 0 0 0 1.3 2l4.83 2.79a1.05 1.05 0 0 0 1 .13l2.15-1.24q.988.261 2 .41a2.26 2.26 0 0 1 1.7 1.48 1.55 1.55 0 0 0 1.59 1.12l4.18-.81q.154-.03.29-.11l16.88-9.69a1.12 1.12 0 0 0 .45-1.24l5.1-2.95c.157-.094.285-.229.37-.39l2.41-4.18a2.21 2.21 0 0 0-.16-2.23 3.1 3.1 0 0 1-.38-2.47q.42-1.513.68-3.06l1.67-1a1.36 1.36 0 0 0 .45-1.21v-6.44a2.88 2.88 0 0 0-.99-2.29"/><path fill="#455A64" d="M82.71 346.45V340a2.85 2.85 0 0 0-1-2.29 3.7 3.7 0 0 1-1.19-2.4c-.19-1.27-.42-2.54-.7-3.82-.22-1-.06-1.95.4-2s.55-1 .19-2l-2.42-7c-.36-1-1-1.8-1.5-1.71s-1.21-.66-1.69-1.64c-.59-1.21-1.21-2.4-1.87-3.56a3.28 3.28 0 0 1-.5-2.55c.28-.47 0-1.53-.63-2.37L67.65 303c-.62-.83-1.35-1.13-1.62-.65s-1 .26-1.72-.43c-.83-.84-1.68-1.64-2.54-2.38a3.68 3.68 0 0 1-1.28-2.37 2.7 2.7 0 0 0-1.3-2.07l-4.83-2.79c-.72-.41-1.3-.16-1.3.57a.918.918 0 0 1-1.28.9c-.83-.255-1.68-.442-2.54-.56a2.45 2.45 0 0 1-1.72-1.56 1.62 1.62 0 0 0-1.62-1.21l-4.18.8c-.62.12-.9.86-.63 1.65a1.71 1.71 0 0 1-.5 2c-.666.407-1.292.876-1.87 1.4a1.128 1.128 0 0 1-1.69-.32c-.47-.63-1.14-.64-1.5 0l-2.42 4.18a2.25 2.25 0 0 0 .19 2.26 3.12 3.12 0 0 1 .4 2.5 29 29 0 0 0-.7 3c-.15.85-.66 1.32-1.19 1s-1 .22-1 1.18v6.44a2.84 2.84 0 0 0 .95 2.28 3.62 3.62 0 0 1 1.24 2.35c.18 1.28.41 2.57.69 3.85.22 1 .07 2-.38 2s-.52 1-.17 2l2.42 7c.36 1 1 1.8 1.46 1.72s1.17.66 1.65 1.65c.59 1.24 1.23 2.45 1.89 3.64a3.22 3.22 0 0 1 .53 2.5c-.26.44 0 1.48.66 2.32l4.18 5.63c.63.84 1.34 1.16 1.59.72s1-.2 1.68.5c.85.86 1.72 1.68 2.61 2.45a3.55 3.55 0 0 1 1.28 2.26 2.64 2.64 0 0 0 1.3 2l4.83 2.79c.72.41 1.3.2 1.3-.48s.58-1 1.28-.79q1.284.379 2.61.57a2.272 2.272 0 0 1 1.65 1.5 1.546 1.546 0 0 0 1.59 1.12l4.18-.81a1.085 1.085 0 0 0 .783-1.089 1.1 1.1 0 0 0-.123-.461 1.66 1.66 0 0 1 .53-1.9 12.4 12.4 0 0 0 1.9-1.45 1.084 1.084 0 0 1 1.325-.082c.132.089.243.206.325.342a.802.802 0 0 0 1.155.337.8.8 0 0 0 .295-.337l2.42-4.18a2.21 2.21 0 0 0-.17-2.23 3.18 3.18 0 0 1-.38-2.48q.431-1.48.69-3c.14-.85.65-1.33 1.18-1s.95-.38.95-1.33"/><path fill="#263238" d="m67.86 283.87-14.41 8.27h-.08a.76.76 0 0 0-.3.69.9.9 0 0 1-.389.807.9.9 0 0 1-.434.159.9.9 0 0 1-.457-.076c-.27-.09-.54-.15-.81-.22q-.855-.22-1.73-.34a2 2 0 0 1-1-.56L65 283c.29.287.66.481 1.06.56.62.06 1.2.17 1.8.31"/><path fill="#000" d="M77.86 289.002 61 298.612a3 3 0 0 1-.51-1.46 2.26 2.26 0 0 0-.37-1.14l16.88-9.66c.224.339.352.733.37 1.14.025.538.194 1.059.49 1.51"/><path fill="#263238" d="m82.32 292.9-16 9.21s-.08 0-.1.06a.33.33 0 0 0-.17.16.48.48 0 0 1-.57.23 2 2 0 0 1-1.15-.66 38 38 0 0 0-2.55-2.38 3.6 3.6 0 0 1-.76-.91L77.86 289c.212.329.468.629.76.89.87.74 1.72 1.53 2.55 2.38.305.328.709.549 1.15.63M93.94 309.281l-16.86 9.66a.7.7 0 0 0-.55-.21c-.47.09-1.21-.65-1.7-1.63-.59-1.22-1.21-2.4-1.86-3.57a3.17 3.17 0 0 1-.5-2.54 1.1 1.1 0 0 0 .09-.62l16.85-9.66a1 1 0 0 1-.09.61 3.3 3.3 0 0 0 .49 2.56c.67 1.14 1.28 2.33 1.87 3.55.48 1 1.22 1.73 1.7 1.64a.77.77 0 0 1 .56.21"/><path fill="#000" d="m77.08 318.941 16.86-9.66a.78.78 0 0 0-.56-.21.6.6 0 0 1-.26 0l-16.85 9.63a.5.5 0 0 0 .26 0 .7.7 0 0 1 .55.24M89.32 301.321a1 1 0 0 0 .09-.61l-16.85 9.66c.031.211 0 .427-.09.62a1.46 1.46 0 0 0-.08.89l16.85-9.67a1.53 1.53 0 0 1 .08-.89"/><path fill="#263238" d="m99.23 328.83-16.87 9.66a1.8 1.8 0 0 0-.62-.78 3.63 3.63 0 0 1-1.19-2.38c-.19-1.28-.42-2.55-.7-3.82a2.4 2.4 0 0 1 .15-1.91l.22-.13.19-.11L96.84 320a2.5 2.5 0 0 0-.14 1.86c.28 1.28.51 2.56.7 3.82a3.72 3.72 0 0 0 1.2 2.41c.272.186.49.442.63.74"/><path fill="#000" d="M98.6 328.062a2.24 2.24 0 0 1-.71-.89L81 336.832c.153.352.398.656.71.88.276.196.491.466.62.78l16.87-9.66a1.86 1.86 0 0 0-.6-.77"/><path fill="#263238" d="m97.48 345.38-16.85 9.67a2.1 2.1 0 0 0-.36-.86 2.8 2.8 0 0 1-.43-1.17 2.9 2.9 0 0 1 0-1.31q.43-1.48.69-3c.15-.85.65-1.31 1.17-1a.53.53 0 0 0 .57 0L97.44 339c-.19 1.07-.42 2.09-.69 3.05a3.09 3.09 0 0 0 .38 2.48c.183.251.303.543.35.85"/><path fill="#000" d="M80.27 354.191c.182.257.305.55.36.86l16.85-9.67a1.94 1.94 0 0 0-.35-.86 2.5 2.5 0 0 1-.42-1.07l-16.85 9.66c.057.386.197.754.41 1.08"/><path fill="#263238" d="M40.59 294.852q-.998.617-1.87 1.4a1.14 1.14 0 0 1-.925.236 1.14 1.14 0 0 1-.775-.556.88.88 0 0 0-1.1-.39l.07-.05 5-2.9c0 .09.05.19.07.29a1.7 1.7 0 0 1-.47 1.97"/><path fill="#000" d="M89 355.512h-.06l-.3.179-16.34 9.37-.14.081a1.19 1.19 0 0 0 .33-1.421 1.63 1.63 0 0 1 .53-1.89q1.018-.632 1.9-1.439a1.076 1.076 0 0 1 1.323-.101c.133.088.245.204.327.341a.86.86 0 0 0 .94.419l.2-.099 11.7-6.681a1.13 1.13 0 0 1-.41 1.241"/><path fill="#263238" d="m62.34 363.121-2.15 1.24a.629.629 0 0 0 .3-.6c0-.68.58-1 1.29-.8zM48 354.001l-.5.28v-.06a.41.41 0 0 1 .5-.22M33 307.881c-.14.85-.67 1.31-1.19 1a.57.57 0 0 0-.43-.06l.14-.08.24-.14z"/><path fill="#000" d="m65 283-16.8 9.64a2.5 2.5 0 0 1-.68-1 2 2 0 0 0-.71-1L63.67 281c.335.251.584.601.71 1 .128.376.34.718.62 1"/><path fill="#37474F" d="M93.74 336.941c0 10.46-3.48 17.84-9 21-1.62.94-2.33 1.33-3.72 2.14 5.42-3.22 8.84-10.56 8.84-20.93 0-19.11-11.61-41.32-26-49.6-6.18-3.57-11.86-4-16.32-1.72l3.25-1.83c4.56-2.64 10.5-2.4 17 1.35 14.33 8.27 25.95 30.48 25.95 49.59"/><path fill="#000" d="M89.88 339.161c0 10.37-3.42 17.7-8.84 20.92l-1.12.59c5.4-3.21 7.46-9.7 7.46-20.06 0-19.11-11.63-41.32-26-49.6-6.41-3.7-10.91-4.82-15.44-2.29l1.62-.89c4.46-2.23 10.14-1.85 16.32 1.73 14.39 8.28 26 30.49 26 49.6"/><path fill="#37474F" d="m63.67 281.001-16.86 9.66a1.22 1.22 0 0 0-.91-.25l-1.73.33-2.45.47h-.16l.26-.16 15.32-8.78.36-.21.35-.2.15-.08.19-.11.11-.07.13-.06a1 1 0 0 1 .14 0l4.19-.8a1.142 1.142 0 0 1 .91.26M77 286.351l-16.88 9.65a2.8 2.8 0 0 0-.92-.93l-4.84-2.79a1.07 1.07 0 0 0-.91-.15l14.41-8.27 1.54-.86.55-.32.29-.16a1 1 0 0 1 1 .11l4.82 2.8c.38.23.702.545.94.92M89.41 300.712l-16.85 9.66a3.8 3.8 0 0 0-.73-1.75l-4.18-5.62c-.47-.62-1-1-1.35-.87l16-9.21.72-.41c.35-.2.94.12 1.46.82l4.21 5.67c.387.496.635 1.086.72 1.71M97.26 319.712l-.11.08-.31.18-16.4 9.38a2.2 2.2 0 0 0 0-1.93l-2.42-7a3.5 3.5 0 0 0-.94-1.5l16.86-9.66c.431.417.751.937.93 1.51l2.43 7c.31.88.28 1.7-.04 1.94M99.56 330.342v6.44c0 .63-.18 1.06-.45 1.21l-1.67 1-15.12 8.67a1.53 1.53 0 0 0 .38-1.18v-6.48a3.5 3.5 0 0 0-.34-1.49l16.87-9.66c.21.469.322.976.33 1.49M97.3 346.742l-2.42 4.19a.94.94 0 0 1-.37.39l-1.13.65-.42.24-3.55 2.06-11.7 6.73a1 1 0 0 0 .31-.35l2.42-4.18a2.12 2.12 0 0 0 .19-1.37l16.85-9.67c.09.444.027.906-.18 1.31M65.452 348.662c6.373-2.712 7.653-14.044 2.859-25.31-4.794-11.267-13.847-18.202-20.22-15.49-6.372 2.711-7.652 14.043-2.858 25.31s13.847 18.201 20.22 15.49"/><path fill="#43A548" d="M63.807 344.798c5.164-2.197 6.2-11.381 2.313-20.514S54.9 309.53 49.736 311.727s-6.2 11.381-2.313 20.513c3.885 9.133 11.221 14.755 16.384 12.558"/><path fill="#263238" d="M61.705 339.857c3.623-1.541 4.352-7.982 1.627-14.385-2.724-6.403-7.87-10.344-11.494-8.803-3.623 1.542-4.352 7.983-1.627 14.386 2.724 6.403 7.87 10.344 11.494 8.802"/><path fill="#43A548" d="M61.5 331.002c0-3.47-2.12-7.51-4.72-9s-4.72.09-4.72 3.56 2.11 7.52 4.72 9 4.72-.1 4.72-3.56"/><path fill="#455A64" d="M57.29 324.31a1.23 1.23 0 0 0-.51-1c-.29-.17-.52 0-.52.38a1.21 1.21 0 0 0 .52 1c.28.17.51-.01.51-.38M59.39 327.251c.2-.15.2-.59 0-1s-.52-.57-.72-.42-.2.59 0 1 .52.57.72.42M60.278 330.827c.228-.098.275-.502.105-.904-.171-.401-.495-.648-.724-.55s-.276.501-.105.903c.171.401.495.648.724.551M58.67 332.84c.2.38.52.57.72.42s.2-.59 0-1-.52-.57-.72-.42-.2.61 0 1M56.26 332.212a1.21 1.21 0 0 0 .52 1c.28.16.51 0 .51-.39a1.26 1.26 0 0 0-.51-1c-.29-.16-.52.01-.52.39M54.16 329.271c-.2.15-.2.58 0 1s.53.57.73.41.2-.58 0-1-.53-.56-.73-.41M53.59 325.731c-.28-.16-.51 0-.51.39a1.23 1.23 0 0 0 .51 1c.28.17.51 0 .51-.38a1.26 1.26 0 0 0-.51-1.01M54.89 323.68c-.2-.38-.53-.57-.73-.42s-.2.59 0 1 .53.57.73.42.2-.62 0-1M58.68 329.362a4.56 4.56 0 0 0-1.9-3.64c-1.06-.61-1.91 0-1.91 1.44a4.55 4.55 0 0 0 1.91 3.64c1.05.61 1.9-.04 1.9-1.44"/><path fill="#263238" d="M126.71 347.522v19.75l-42.27-24.4a59 59 0 0 0-2.27-15v-.06a69 69 0 0 0-2.56-7.46z"/><path fill="#000" d="M202.7 348.041h-8.99v8.99h8.99zM126.71 347.52v6.11l-44.51-25.7v-.15a69 69 0 0 0-2.56-7.46z"/><path fill="#43A548" d="M100 210.612v121.47l-20.41-11.76a69 69 0 0 0-4.24-8.71v-107.67c0-4.17 2.53-6.08 5.65-4.28z"/><path fill="#000" d="M100 210.612v121.47l-20.41-11.76a69 69 0 0 0-4.24-8.71v-107.67c0-4.17 2.53-6.08 5.65-4.28z" opacity=".2"/><path fill="#43A548" d="M75.35 247.571v64a75 75 0 0 0-2.31-3.74c-4.3-6.47-9.52-11.83-15.15-15.08a26 26 0 0 0-5.55-2.43c-5.4-1.59-10.2-.63-13.84 2.45v-59c0-4.16 2.53-6.06 5.65-4.26z"/><path fill="#000" d="M75.35 247.571v64a75 75 0 0 0-2.31-3.74c-4.3-6.47-9.52-11.83-15.15-15.08a26 26 0 0 0-5.55-2.43c-5.4-1.59-10.2-.63-13.84 2.45v-59c0-4.16 2.53-6.06 5.65-4.26z" opacity=".2"/><path fill="#37474F" d="M100 210.611v93.39l-24.65-14.17v-42.26l-2.35-1.33v42.25l-34.5-19.94v3.09l34.5 19.94v16.29q1.2 1.81 2.31 3.74v-18.69l24.69 14.21v24.95l2.31 1.34v-121.42z"/><path fill="#FAFAFA" d="m47 261.11 19.92 11.5a2.36 2.36 0 0 1 1 1.89v.06c0 .73-.44 1.07-1 .75L47 263.81a2.38 2.38 0 0 1-1-1.89v-.07c0-.73.42-1.06 1-.74M47 250.54 66.88 262a2.35 2.35 0 0 1 1 1.89v.11c0 .73-.44 1.07-1 .75L47 253.24a2.4 2.4 0 0 1-1-1.89v-.07c0-.73.42-1.06 1-.74M47 240l19.92 11.5a2.36 2.36 0 0 1 1 1.89v.06c0 .73-.44 1.07-1 .75L47 242.67a2.39 2.39 0 0 1-1-1.89v-.07c0-.71.42-1.06 1-.71"/><path fill="#455A64" d="M95.21 289.481v-71.79a5.42 5.42 0 0 0-2.21-4.32l-10.83-6.25c-1.25-.72-2.26 0-2.26 1.71v71.78a5.4 5.4 0 0 0 2.26 4.32l10.83 6.25c1.19.73 2.21-.04 2.21-1.7"/><path fill="#fff" d="m38.5 267.061 34.54 19.94v1.49l-34.54-19.94zM75.35 288.34l24.62 14.21v1.49l-24.62-14.21z" opacity=".7"/><path fill="#263238" d="m126.7 347.521 34.67-20.01-15.41-8.89-34.66 20.01z"/><path fill="#37474F" d="M284.3 332.722a4.43 4.43 0 0 1-1.43-2.85c-.22-1.52-.5-3-.83-4.55a3 3 0 0 1 .16-2.23l.46-.27c.42-.25.47-1.25.08-2.37l-2.87-8.31c-.43-1.23-1.23-2.15-1.79-2s-1.45-.78-2-2c-.7-1.44-1.44-2.86-2.23-4.24-.63-1.13-.91-2.47-.59-3s0-1.82-.75-2.82l-5-6.72c-.62-.84-1.33-1.22-1.73-1l-.87.5a2.64 2.64 0 0 1-1.38-.81c-1-1-2-2-3-2.83a4.4 4.4 0 0 1-1.53-2.83 3.25 3.25 0 0 0-1.54-2.47l-5.76-3.32a1.18 1.18 0 0 0-1.16-.14l-2.83 1.64a21 21 0 0 0-2.11-.42 2.89 2.89 0 0 1-2-1.85 1.94 1.94 0 0 0-1.93-1.45l-5 1a1.3 1.3 0 0 0-.32.12c-.51.31-20 11.46-20.08 11.52-.23.164-.405.395-.5.661a1.4 1.4 0 0 0-.03.829l-6.19 3.49a1.1 1.1 0 0 0-.4.43l-2.88 5a2.67 2.67 0 0 0 .23 2.69 3.8 3.8 0 0 1 .47 3 33 33 0 0 0-.83 3.59l-2 1.17a1.65 1.65 0 0 0-.54 1.44v7.68a3.42 3.42 0 0 0 1.13 2.71 4.32 4.32 0 0 1 1.4 2.84c.22 1.53.5 3.06.82 4.59a3.1 3.1 0 0 1-.15 2.23l-.43.25c-.42.24-.46 1.24-.07 2.37l2.88 8.31c.43 1.23 1.21 2.15 1.74 2.05s1.39.79 2 2a84 84 0 0 0 2.27 4.34c.63 1.13.93 2.44.62 3s0 1.77.79 2.76l5 6.72c.63.85 1.34 1.25 1.72 1l.75-.43a2.63 2.63 0 0 1 1.43.85c1 1 2.05 2 3.11 2.91a4.25 4.25 0 0 1 1.52 2.71 3.17 3.17 0 0 0 1.55 2.35l5.76 3.32a1.2 1.2 0 0 0 1.18.16c.23-.12 2.57-1.48 2.57-1.48a21 21 0 0 0 2.43.49 2.72 2.72 0 0 1 2 1.72 1.84 1.84 0 0 0 1.89 1.33l5-1q.18-.041.34-.13l20.07-11.51a1.35 1.35 0 0 0 .53-1.49l6.08-3.51c.185-.112.337-.271.44-.46l2.87-5a2.63 2.63 0 0 0-.19-2.65 3.8 3.8 0 0 1-.46-3q.509-1.798.82-3.64l2-1.16a1.62 1.62 0 0 0 .53-1.44v-7.67a3.44 3.44 0 0 0-1.24-2.72"/><path fill="#263238" d="M265.359 354.64V347a3.4 3.4 0 0 0-1.139-2.72 4.42 4.42 0 0 1-1.43-2.86 71 71 0 0 0-.831-4.55c-.27-1.23-.079-2.33.481-2.43s.65-1.2.22-2.43l-2.88-8.31c-.42-1.23-1.22-2.15-1.78-2s-1.45-.78-2-1.95c-.7-1.45-1.45-2.86-2.23-4.24-.64-1.13-.921-2.48-.591-3s0-1.83-.75-2.82l-5-6.72c-.74-1-1.599-1.35-1.929-.78s-1.24.31-2.05-.52q-1.5-1.5-3-2.82a4.39 4.39 0 0 1-1.53-2.83 3.24 3.24 0 0 0-1.551-2.47l-5.75-3.32c-.86-.49-1.549-.19-1.549.68a1.088 1.088 0 0 1-1.52 1.07 20.5 20.5 0 0 0-3-.67 2.88 2.88 0 0 1-2.05-1.85 1.94 1.94 0 0 0-1.93-1.45l-5 1c-.74.14-1.08 1-.76 2a2.007 2.007 0 0 1-.59 2.35 15.3 15.3 0 0 0-2.23 1.67 1.35 1.35 0 0 1-1.614.042 1.34 1.34 0 0 1-.386-.422c-.56-.75-1.36-.76-1.79 0l-2.88 5a2.683 2.683 0 0 0 .23 2.69 3.8 3.8 0 0 1 .47 3 33 33 0 0 0-.83 3.59c-.18 1-.79 1.57-1.42 1.21s-1.151.26-1.151 1.4V319a3.4 3.4 0 0 0 1.131 2.71 4.32 4.32 0 0 1 1.399 2.84c.22 1.53.501 3.06.821 4.59.27 1.24.09 2.33-.45 2.43s-.62 1.19-.2 2.42l2.88 8.31c.43 1.23 1.21 2.15 1.74 2.05s1.39.79 2 2a83 83 0 0 0 2.27 4.34c.63 1.13.93 2.44.62 3s-.001 1.77.789 2.76l5 6.72c.74 1 1.59 1.38 1.89.86s1.19-.24 2 .59c1 1 2.05 2 3.11 2.91a4.26 4.26 0 0 1 1.521 2.71 3.16 3.16 0 0 0 1.55 2.35l5.76 3.32c.849.49 1.54.24 1.54-.56s.69-1.2 1.53-.95c1.017.307 2.057.535 3.11.68a2.73 2.73 0 0 1 2 1.72 1.834 1.834 0 0 0 1.89 1.33l5-1c.74-.14 1.09-1 .79-1.86a1.935 1.935 0 0 1 .619-2.25 15 15 0 0 0 2.261-1.73c.143-.129.314-.225.499-.28s.38-.07.571-.041a1.31 1.31 0 0 1 .93.621.99.99 0 0 0 .864.499 1 1 0 0 0 .866-.499l2.879-5a2.6 2.6 0 0 0-.199-2.65 3.826 3.826 0 0 1-.451-3q.51-1.797.821-3.64c.17-1 .78-1.58 1.399-1.22.62.36.99-.3.99-1.44"/><path fill="#263238" d="m247.67 280.08-17.17 9.85h-.09a.936.936 0 0 0-.36.83 1.087 1.087 0 0 1-.986 1.149 1.1 1.1 0 0 1-.544-.089c-.32-.1-.64-.18-1-.26a17 17 0 0 0-2.07-.41 2.3 2.3 0 0 1-1.24-.67l20.1-11.48c.342.346.782.58 1.26.67.7.11 1.43.24 2.1.41"/><path fill="#000" d="m259.59 286.14-20.09 11.51a3.6 3.6 0 0 1-.61-1.75 2.7 2.7 0 0 0-.44-1.36L258.54 283c.265.406.417.876.44 1.36.043.637.253 1.251.61 1.78"/><path fill="#263238" d="m264.9 290.84-19.09 11a.3.3 0 0 0-.12.06.45.45 0 0 0-.2.19.58.58 0 0 1-.68.28 2.43 2.43 0 0 1-1.37-.79c-1-1-2-1.95-3-2.83a4.6 4.6 0 0 1-.91-1.08l20.09-11.51c.251.395.558.752.91 1.06 1 .89 2 1.83 3 2.83.358.406.84.683 1.37.79M278.75 310.352l-20.09 11.51a.818.818 0 0 0-.66-.24c-.56.1-1.44-.78-2-1.95-.7-1.45-1.45-2.86-2.22-4.25-.64-1.12-.93-2.46-.6-3 .113-.229.151-.488.11-.74l20.07-11.51a1.13 1.13 0 0 1-.1.73c-.32.56-.05 1.92.59 3 .79 1.37 1.52 2.79 2.22 4.23.58 1.19 1.46 2.07 2 2a.85.85 0 0 1 .68.22"/><path fill="#000" d="m258.66 321.861 20.09-11.51a.86.86 0 0 0-.67-.24.6.6 0 0 1-.31 0l-20.08 11.51a.9.9 0 0 0 .31 0 .83.83 0 0 1 .66.24M273.24 300.871c.114-.226.149-.483.1-.73l-20.07 11.51c.041.252.003.51-.11.74a1.77 1.77 0 0 0-.09 1.06l20.08-11.52a1.93 1.93 0 0 1 .09-1.06"/><path fill="#263238" d="m285.05 333.651-20.11 11.51a2 2 0 0 0-.73-.93 4.37 4.37 0 0 1-1.41-2.84c-.23-1.53-.5-3-.84-4.55a2.791 2.791 0 0 1 .2-2.27l.26-.15.23-.14 19.54-11.17a3.06 3.06 0 0 0-.16 2.22c.33 1.52.6 3.05.83 4.55a4.36 4.36 0 0 0 1.43 2.86c.332.228.595.543.76.91"/><path fill="#000" d="M284.3 332.722a2.54 2.54 0 0 1-.85-1.05l-20.08 11.51c.18.419.47.782.84 1.05.331.229.586.553.73.93l20.11-11.51a2.2 2.2 0 0 0-.75-.93"/><path fill="#263238" d="m283 353.361-20.07 11.531a2.5 2.5 0 0 0-.43-1 3.2 3.2 0 0 1-.51-1.401 3.4 3.4 0 0 1 .06-1.56q.515-1.791.82-3.63c.18-1 .77-1.56 1.4-1.21a.59.59 0 0 0 .67 0l18-10.32c-.23 1.28-.5 2.5-.82 3.64a3.63 3.63 0 0 0 .45 2.95c.223.294.371.637.43 1"/><path fill="#000" d="M262.46 363.872c.214.298.361.639.43 1l20.11-11.51a2.24 2.24 0 0 0-.41-1 3.1 3.1 0 0 1-.5-1.27L262 362.572c.062.46.218.903.46 1.3"/><path fill="#263238" d="M215.18 293.161a14.7 14.7 0 0 0-2.23 1.67 1.34 1.34 0 0 1-1.087.265 1.355 1.355 0 0 1-.913-.645 1 1 0 0 0-1.31-.47l.08-.06 6-3.46.09.35a2 2 0 0 1-.63 2.35"/><path fill="#000" d="M272.81 365.432h-.06a4 4 0 0 0-.37.21L253 376.822l-.17.09a1.42 1.42 0 0 0 .39-1.69 1.945 1.945 0 0 1 .63-2.25 16 16 0 0 0 2.27-1.72 1.27 1.27 0 0 1 1.071-.344 1.28 1.28 0 0 1 .929.634 1 1 0 0 0 1.13.5l.22-.12 13.94-8a1.31 1.31 0 0 1-.6 1.51"/><path fill="#263238" d="m241.1 374.502-2.56 1.5a.73.73 0 0 0 .35-.71c0-.81.7-1.21 1.54-1zM224 363.681l-.6.34a1 1 0 0 0 0-.08.503.503 0 0 1 .6-.26M206.14 308.682c-.17 1-.8 1.57-1.42 1.2a.65.65 0 0 0-.52-.07l.17-.1.29-.16z"/><path fill="#000" d="m244.31 279.001-20.06 11.52a3 3 0 0 1-.81-1.18 2.37 2.37 0 0 0-.85-1.15l20.09-11.5c.397.281.695.68.85 1.14.164.447.431.848.78 1.17"/><path fill="#37474F" d="M278.51 343.311c0 12.47-4.15 21.25-10.69 25l-4.44 2.55c6.45-3.84 10.53-12.58 10.53-24.93 0-22.77-13.83-49.24-30.93-59.1-7.36-4.26-14.13-4.72-19.45-2.06 1.71-1 2-1.14 3.8-2.19 5.43-3.15 12.51-2.86 20.26 1.62 17.07 9.88 30.92 36.35 30.92 59.11"/><path fill="#000" d="M273.91 346.001c0 12.36-4.08 21.099-10.53 24.929l-1.34.701c6.44-3.82 8.89-11.551 8.89-23.891 0-22.77-13.85-49.239-30.93-59.099-7.64-4.41-13-5.75-18.4-2.74l1.93-1.05c5.32-2.66 12.09-2.21 19.45 2.05 17.1 9.82 30.93 36.28 30.93 59.1"/><path fill="#37474F" d="m242.68 276.691-20.09 11.5a1.4 1.4 0 0 0-.51-.259 1.4 1.4 0 0 0-.57-.041l-2.06.4-2.92.56a.8.8 0 0 0-.2.06l.32-.2 18.25-10.46.43-.24.42-.24.17-.1.23-.13.13-.08.16-.07a.5.5 0 0 1 .16-.05l5-1a1.36 1.36 0 0 1 1.08.35M258.54 283.001l-20.09 11.51a3.35 3.35 0 0 0-1.1-1.11l-5.77-3.32a1.25 1.25 0 0 0-1.08-.18l17.17-9.85 1.84-1.05.66-.38.35-.2a1.21 1.21 0 0 1 1.15.14l5.75 3.33c.455.277.839.657 1.12 1.11M273.34 300.142l-20.07 11.51a4.5 4.5 0 0 0-.87-2.09l-5-6.71c-.57-.75-1.21-1.14-1.62-1l19.09-11 .87-.49c.41-.24 1.11.14 1.73 1l5 6.72c.472.595.772 1.307.87 2.06M282.7 322.792l-.13.09-.37.21-19.54 11.17a2.56 2.56 0 0 0 0-2.29l-2.88-8.31a4 4 0 0 0-1.12-1.8l20.09-11.51c.511.5.892 1.118 1.11 1.8l2.89 8.31c.37 1.06.34 2.04-.05 2.33M285.44 335.451v7.67a1.65 1.65 0 0 1-.53 1.45l-2 1.15-18.01 10.28c.171-.188.301-.41.38-.651s.107-.496.08-.749v-7.6c0-.618-.144-1.227-.42-1.78l20.11-11.51c.247.548.38 1.14.39 1.74M282.75 355.001l-2.88 5c-.097.194-.25.354-.44.46l-1.35.78-.5.28-4.24 2.48-13.94 8c.159-.103.289-.244.38-.41l2.88-5a2.5 2.5 0 0 0 .23-1.62l20.11-11.61c.114.559.025 1.14-.25 1.64"/><path fill="#000" d="M244.81 357.277c7.592-3.231 9.118-16.73 3.407-30.151s-16.496-21.683-24.088-18.452-9.118 16.73-3.407 30.151 16.496 21.683 24.088 18.452"/><path fill="#43A548" d="M242.853 352.676c6.154-2.619 7.39-13.562 2.76-24.443-4.629-10.88-13.371-17.578-19.525-14.959-6.155 2.619-7.391 13.562-2.761 24.442s13.372 17.578 19.526 14.96"/><path fill="#263238" d="M244.25 338.61c0-7.2-4.38-15.569-9.78-18.689s-9.78.19-9.78 7.4 4.37 15.57 9.78 18.69 9.78-.191 9.78-7.401"/><path fill="#43A548" d="M240.09 336.21c0-4.14-2.52-8.95-5.62-10.74s-5.63.11-5.63 4.25 2.52 8.95 5.63 10.74 5.62-.11 5.62-4.25"/><path fill="#455A64" d="M235.08 328.261a1.45 1.45 0 0 0-.61-1.17c-.34-.2-.61 0-.61.46a1.48 1.48 0 0 0 .61 1.17c.34.19.61-.01.61-.46M237.58 331.762c.24-.18.24-.69 0-1.15s-.62-.68-.86-.5-.24.7 0 1.15.63.68.86.5M238.633 336.03c.269-.114.323-.595.119-1.072-.203-.478-.586-.772-.855-.658-.27.115-.323.595-.12 1.073.203.477.586.772.856.657M236.72 338.42c.24.46.63.68.86.5s.24-.7 0-1.15-.62-.68-.86-.5-.24.73 0 1.15M233.86 337.671a1.44 1.44 0 0 0 .61 1.17c.34.2.61 0 .61-.46a1.46 1.46 0 0 0-.61-1.17c-.34-.21-.61.01-.61.46M231.35 334.171c-.24.18-.24.7 0 1.15s.63.68.87.5.23-.7 0-1.15-.63-.67-.87-.5M230.67 330.001c-.34-.2-.61 0-.61.46a1.46 1.46 0 0 0 .61 1.17c.34.19.61 0 .61-.46a1.45 1.45 0 0 0-.61-1.17M232.22 327.51c-.24-.46-.63-.68-.87-.5s-.24.7 0 1.15.63.68.87.5.23-.66 0-1.15M236.74 334.28a5.44 5.44 0 0 0-2.27-4.34c-1.26-.73-2.27 0-2.27 1.71a5.4 5.4 0 0 0 2.27 4.34c1.25.73 2.27.01 2.27-1.71"/><path fill="#43A548" d="M196.52 352.49c1.14-.66 2.06-.13 2.06 1.18v26.55L252.5 349v-26.46a4.53 4.53 0 0 1 2.05-3.55z"/><path fill="#000" d="M196.52 352.49c1.14-.66 2.06-.13 2.06 1.18v26.55L252.5 349v-26.46a4.53 4.53 0 0 1 2.05-3.55z" opacity=".1"/><path fill="#43A548" d="m263 280.65-77.5 44.76-28.88-83L200.75 217v17.4a6.11 6.11 0 0 0 2.55 4.88l56.38 32.55q.17.095.35.17z"/><path fill="#000" d="m263 280.65-77.5 44.76-28.88-83L200.75 217v17.4a6.11 6.11 0 0 0 2.55 4.88l56.38 32.55q.17.095.35.17z" opacity=".5"/><path fill="#37474F" d="M206.27 379.001a4.37 4.37 0 0 1-1.42-2.85c-.22-1.51-.5-3-.83-4.55a3 3 0 0 1 .16-2.23l.45-.26c.43-.25.48-1.25.09-2.38l-2.88-8.3c-.43-1.24-1.23-2.15-1.79-2s-1.44-.78-2-2c-.7-1.44-1.44-2.86-2.22-4.24-.64-1.12-.92-2.47-.59-3s0-1.83-.76-2.83l-5-6.71c-.62-.84-1.33-1.22-1.74-1l-.86.5a2.53 2.53 0 0 1-1.38-.81c-1-1-2-1.95-3-2.83a4.4 4.4 0 0 1-1.52-2.82 3.23 3.23 0 0 0-1.55-2.47l-5.75-3.32a1.197 1.197 0 0 0-1.17-.14l-2.83 1.63a18 18 0 0 0-2.1-.41 2.88 2.88 0 0 1-2.05-1.86 1.925 1.925 0 0 0-1.93-1.44l-5 1a1 1 0 0 0-.32.12l-20.07 11.51c-.23.164-.405.395-.5.661a1.4 1.4 0 0 0-.03.829s-5.7 3.29-6.13 3.55c-.168.106-.308.25-.41.42l-2.87 5a2.66 2.66 0 0 0 .22 2.69 3.725 3.725 0 0 1 .48 3 34 34 0 0 0-.83 3.6l-2 1.17a1.62 1.62 0 0 0-.53 1.44v7.67a3.4 3.4 0 0 0 1.13 2.72 4.34 4.34 0 0 1 1.4 2.84c.22 1.52.49 3 .82 4.58a3.08 3.08 0 0 1-.16 2.23l-.42.25c-.42.24-.46 1.25-.07 2.38l2.88 8.3c.42 1.24 1.2 2.16 1.73 2.05s1.4.79 2 2a71 71 0 0 0 2.26 4.34c.64 1.13.93 2.45.62 3s0 1.76.79 2.76l5 6.71c.63.85 1.33 1.26 1.72 1l.75-.44a2.67 2.67 0 0 1 1.42.85c1 1 2.05 2 3.11 2.92a4.3 4.3 0 0 1 1.53 2.7 3.1 3.1 0 0 0 1.55 2.35l5.75 3.32a1.27 1.27 0 0 0 1.19.17l2.57-1.48q1.2.316 2.43.48a2.7 2.7 0 0 1 2 1.73 1.84 1.84 0 0 0 1.89 1.32l5-1q.18-.034.34-.12c.5-.3 20-11.46 20.07-11.52a1.33 1.33 0 0 0 .53-1.48l6.09-3.52c.181-.109.33-.264.43-.45l2.88-5a2.61 2.61 0 0 0-.2-2.65 3.72 3.72 0 0 1-.45-2.95c.32-1.15.6-2.37.82-3.64l2-1.15a1.65 1.65 0 0 0 .53-1.45v-7.67a3.41 3.41 0 0 0-1.27-2.82"/><path fill="#455A64" d="M187.34 400.902v-7.67a3.44 3.44 0 0 0-1.15-2.73 4.33 4.33 0 0 1-1.42-2.85c-.23-1.52-.5-3-.83-4.55-.27-1.24-.08-2.33.47-2.44s.65-1.19.23-2.43l-2.88-8.31c-.43-1.23-1.23-2.14-1.79-2s-1.44-.77-2-1.95c-.7-1.44-1.44-2.86-2.22-4.24-.64-1.13-.92-2.47-.6-3s0-1.83-.75-2.83l-5-6.72c-.74-1-1.61-1.34-1.93-.78s-1.24.31-2.05-.51c-1-1-2-1.95-3-2.83a4.36 4.36 0 0 1-1.52-2.82 3.23 3.23 0 0 0-1.55-2.47l-5.76-3.33c-.85-.49-1.54-.18-1.54.69a1.09 1.09 0 0 1-1.53 1.06 20.5 20.5 0 0 0-3-.67 2.86 2.86 0 0 1-1.265-.659 2.86 2.86 0 0 1-.785-1.191 1.92 1.92 0 0 0-1.93-1.44l-5 1c-.74.14-1.08 1-.75 1.95a2 2 0 0 1-.59 2.35 15 15 0 0 0-2.23 1.67 1.4 1.4 0 0 1-.512.252 1.36 1.36 0 0 1-1.099-.203 1.4 1.4 0 0 1-.389-.419c-.56-.76-1.36-.77-1.79 0l-2.87 5a2.67 2.67 0 0 0 .22 2.69 3.73 3.73 0 0 1 .48 3 34 34 0 0 0-.83 3.6c-.18 1-.8 1.57-1.43 1.2s-1.14.27-1.14 1.41v7.67a3.4 3.4 0 0 0 1.13 2.72 4.34 4.34 0 0 1 1.4 2.84c.22 1.52.49 3 .82 4.58.26 1.24.08 2.33-.46 2.43s-.62 1.19-.19 2.43l2.88 8.3c.42 1.24 1.2 2.16 1.73 2.05s1.4.79 2 2a71 71 0 0 0 2.26 4.34c.64 1.13.93 2.45.63 3s0 1.76.78 2.76l5 6.71c.74 1 1.58 1.38 1.89.86s1.19-.24 2 .59c1 1 2.05 2 3.11 2.92a4.28 4.28 0 0 1 1.53 2.7 3.12 3.12 0 0 0 1.55 2.35l5.75 3.32c.86.5 1.55.25 1.55-.56s.69-1.19 1.52-.94c1.021.305 2.064.529 3.12.67a2.7 2.7 0 0 1 2 1.73 1.84 1.84 0 0 0 1.89 1.32l5-1a1.3 1.3 0 0 0 .79-1.85 2 2 0 0 1 .63-2.26 15.3 15.3 0 0 0 2.26-1.72 1.3 1.3 0 0 1 1.073-.334 1.29 1.29 0 0 1 .927.634 1 1 0 0 0 .885.482 1.002 1.002 0 0 0 .855-.532l2.88-5a2.63 2.63 0 0 0-.2-2.65 3.72 3.72 0 0 1-.45-2.95q.502-1.798.81-3.64c.18-1 .78-1.59 1.41-1.23s.97-.47.97-1.57"/><path fill="#263238" d="m169.64 326.342-17.16 9.85-.09.05a.91.91 0 0 0-.37.82 1.094 1.094 0 0 1-.976 1.153 1.1 1.1 0 0 1-.544-.083 8 8 0 0 0-1-.26q-1.022-.275-2.07-.41a2.4 2.4 0 0 1-1.25-.67l20.06-11.53c.341.347.781.581 1.26.67.74.07 1.43.25 2.14.41"/><path fill="#000" d="m181.56 332.401-20.09 11.51a3.64 3.64 0 0 1-.61-1.75 2.66 2.66 0 0 0-.44-1.36l20.09-11.5c.265.402.417.869.44 1.35a3.64 3.64 0 0 0 .61 1.75"/><path fill="#263238" d="m186.87 337.102-19.08 11a.22.22 0 0 0-.12.06.4.4 0 0 0-.2.2.6.6 0 0 1-.69.27 2.5 2.5 0 0 1-1.37-.79c-1-1-2-1.95-3-2.83a4.6 4.6 0 0 1-.91-1.08l20.09-11.51c.255.395.561.755.91 1.07 1 .88 2 1.82 3 2.83.36.401.841.675 1.37.78M200.72 356.622l-20.09 11.5a.83.83 0 0 0-.65-.24c-.56.11-1.45-.78-2-1.95-.7-1.44-1.44-2.86-2.22-4.24-.64-1.13-.93-2.47-.59-3 .112-.233.15-.495.11-.75l20.07-11.51c.046.248.007.505-.11.73-.32.57 0 1.92.6 3.05.79 1.37 1.52 2.78 2.22 4.23.58 1.19 1.46 2.07 2 2a.86.86 0 0 1 .66.18"/><path fill="#000" d="m180.63 368.121 20.09-11.5a.87.87 0 0 0-.67-.25.63.63 0 0 1-.3 0l-20.09 11.5a.6.6 0 0 0 .32 0 .85.85 0 0 1 .65.25M195.21 347.13c.117-.224.156-.481.11-.73l-20.07 11.51c.04.256.002.517-.11.75-.14.336-.171.706-.09 1.06l20.08-11.53a1.85 1.85 0 0 1 .08-1.06"/><path fill="#263238" d="m207 379.921-20.1 11.51a1.87 1.87 0 0 0-.73-.93 4.35 4.35 0 0 1-1.42-2.85c-.23-1.52-.5-3-.83-4.55a2.9 2.9 0 0 1-.141-1.154c.033-.391.146-.77.331-1.116l.26-.16.23-.13 19.54-11.18a3 3 0 0 0-.17 2.23c.33 1.52.61 3 .84 4.55a4.4 4.4 0 0 0 1.43 2.86c.336.228.6.547.76.92"/><path fill="#000" d="M206.28 379.001a2.5 2.5 0 0 1-.85-1.06l-20.09 11.51c.186.422.479.787.85 1.06.337.223.594.55.73.93l20.08-11.52a2.13 2.13 0 0 0-.72-.92"/><path fill="#263238" d="m204.94 399.631-20.08 11.52a2.5 2.5 0 0 0-.42-1 3.35 3.35 0 0 1-.52-1.4 3.5 3.5 0 0 1 .06-1.55q.523-1.794.82-3.64c.19-1 .78-1.55 1.4-1.2a.62.62 0 0 0 .67 0l18-10.32c-.23 1.27-.5 2.49-.82 3.63a3.72 3.72 0 0 0 .46 3c.214.284.361.612.43.96"/><path fill="#000" d="M184.44 410.13c.211.299.355.64.42 1l20.08-11.52a2.36 2.36 0 0 0-.41-1 3.1 3.1 0 0 1-.51-1.28L184 408.84c.051.457.201.897.44 1.29"/><path fill="#263238" d="M137.15 339.42a15.4 15.4 0 0 0-2.22 1.67 1.358 1.358 0 0 1-2-.38 1 1 0 0 0-1.3-.47l.07-.06 6-3.45c0 .1.06.22.09.35a2.004 2.004 0 0 1-.64 2.34"/><path fill="#000" d="M194.79 411.691h-.06l-.36.21-19.41 11.13-.17.09a1.44 1.44 0 0 0 .4-1.69 1.925 1.925 0 0 1 .62-2.25 14.8 14.8 0 0 0 2.27-1.72c.141-.133.311-.233.496-.292a1.3 1.3 0 0 1 1.111.161c.161.109.295.253.393.421a1 1 0 0 0 1.13.5l.23-.12 13.94-8a1.31 1.31 0 0 1-.59 1.56"/><path fill="#263238" d="m163.07 420.77-2.56 1.47a.73.73 0 0 0 .35-.71c0-.81.7-1.2 1.54-1zM145.93 410.001l-.59.33a.2.2 0 0 0 0-.07.5.5 0 0 1 .59-.26M128.11 354.941c-.17 1-.79 1.57-1.42 1.21a.61.61 0 0 0-.51-.08l.16-.09.29-.17z"/><path fill="#000" d="m166.28 325.26-20.06 11.53a3 3 0 0 1-.81-1.19 2.2 2.2 0 0 0-.85-1.14L164.65 323c.402.274.702.676.85 1.14.176.425.442.807.78 1.12"/><path fill="#37474F" d="M200.49 389.581c0 12.46-4.16 21.24-10.7 25-1.93 1.11-2.78 1.58-4.44 2.54 6.46-3.84 10.54-12.57 10.54-24.93 0-22.77-13.84-49.24-30.93-59.1-7.37-4.26-14.14-4.72-19.45-2.05l3.8-2.19c5.43-3.15 12.51-2.86 20.25 1.61 17.08 9.88 30.93 36.35 30.93 59.12"/><path fill="#000" d="M195.89 392.222c0 12.35-4.08 21.09-10.54 24.93l-1.34.7c6.44-3.82 8.89-11.56 8.89-23.9 0-22.77-13.85-49.23-30.92-59.1-7.64-4.41-13-5.75-18.41-2.74l1.94-1.05c5.31-2.66 12.08-2.2 19.45 2.06 17.09 9.88 30.93 36.33 30.93 59.1"/><path fill="#37474F" d="m164.65 323-20.09 11.51a1.4 1.4 0 0 0-1.08-.31l-2 .4-2.92.56a1 1 0 0 0-.2.06l.32-.19 18.24-10.46.43-.25.43-.24.16-.09.23-.14.14-.07.15-.08a.6.6 0 0 1 .17 0l5-1a1.32 1.32 0 0 1 1.02.3M180.509 329.301l-20.09 11.5a3.4 3.4 0 0 0-1.09-1.11l-5.77-3.31a1.23 1.23 0 0 0-1.08-.19l17.16-9.85 1.851-1 .649-.38.351-.2a1.23 1.23 0 0 1 1.159.14l5.75 3.33c.448.267.827.633 1.11 1.07M195.32 346.4l-20.07 11.51a4.8 4.8 0 0 0-.87-2.08l-5-6.72c-.56-.74-1.2-1.14-1.61-1l19.08-11 .87-.48c.41-.25 1.11.13 1.73 1l5 6.73c.463.592.763 1.296.87 2.04M204.68 369.051l-.14.09-.36.21-19.54 11.18a2.6 2.6 0 0 0 0-2.3l-2.88-8.31a4.1 4.1 0 0 0-1.13-1.8l20.09-11.5a4.2 4.2 0 0 1 1.11 1.79l2.9 8.31c.36 1.07.33 2.04-.05 2.33M207.42 381.712v7.67c0 .75-.21 1.27-.53 1.45l-2 1.16-18 10.32a1.79 1.79 0 0 0 .46-1.4v-7.69a4.1 4.1 0 0 0-.41-1.78l20.06-11.52a4.2 4.2 0 0 1 .42 1.79M204.73 401.25l-2.88 5a1.2 1.2 0 0 1-.44.45l-1.36.78-.5.29-4.23 2.45-13.94 8c.156-.106.286-.246.38-.41l2.88-5a2.55 2.55 0 0 0 .22-1.63l20.08-11.52a2.5 2.5 0 0 1-.21 1.59M166.772 403.535c7.592-3.231 9.118-16.73 3.407-30.151-5.711-13.422-16.496-21.683-24.088-18.452s-9.118 16.729-3.407 30.151c5.711 13.421 16.495 21.682 24.088 18.452"/><path fill="#43A548" d="M164.815 398.933c6.154-2.618 7.39-13.561 2.76-24.442-4.629-10.88-13.371-17.578-19.526-14.959s-7.39 13.562-2.76 24.442 13.372 17.578 19.526 14.959"/><path fill="#263238" d="M162.313 393.054c4.319-1.838 5.188-9.516 1.94-17.149s-9.382-12.331-13.702-10.493-5.188 9.516-1.941 17.149c3.248 7.633 9.383 12.331 13.703 10.493"/><path fill="#43A548" d="M162.07 382.481c0-4.14-2.52-9-5.63-10.75s-5.62.11-5.62 4.25 2.52 8.95 5.62 10.75 5.63-.11 5.63-4.25"/><path fill="#455A64" d="M157.05 374.52a1.47 1.47 0 0 0-.61-1.17c-.34-.19-.61 0-.61.47a1.43 1.43 0 0 0 .61 1.16c.34.2.61.02.61-.46M159.56 378c.24-.18.24-.7 0-1.16s-.63-.68-.87-.5-.23.7 0 1.16.63.71.87.5M160.24 382.241c.34.19.61 0 .61-.47a1.43 1.43 0 0 0-.61-1.16c-.34-.2-.61 0-.61.46a1.46 1.46 0 0 0 .61 1.17M158.69 384.691c.24.45.63.68.87.5s.24-.7 0-1.16-.63-.68-.87-.5-.23.7 0 1.16M155.83 383.94a1.46 1.46 0 0 0 .61 1.17c.34.19.61 0 .61-.47a1.43 1.43 0 0 0-.61-1.16c-.34-.2-.61.01-.61.46M153.33 380.43c-.24.18-.24.7 0 1.16s.62.68.86.5.24-.7 0-1.16-.63-.68-.86-.5M152.65 376.221c-.34-.19-.62 0-.62.47a1.44 1.44 0 0 0 .62 1.16c.33.2.61 0 .61-.46a1.51 1.51 0 0 0-.61-1.17M154.19 373.77c-.24-.45-.63-.68-.86-.5s-.24.7 0 1.16.62.68.86.5.24-.7 0-1.16M158.71 380.542a5.44 5.44 0 0 0-2.27-4.34c-1.25-.72-2.27.05-2.27 1.72a5.45 5.45 0 0 0 2.27 4.34c1.26.74 2.27-.05 2.27-1.72"/><path fill="#43A548" d="M168.38 320.79a2.52 2.52 0 0 1-1.89-.38l-58.8-33.94a6.395 6.395 0 0 1-2.66-5.09v-66.13a4.6 4.6 0 0 1 .26-1.59 2.52 2.52 0 0 1 1.89.35l31.63 18.27a8 8 0 0 1 3.19 4.38l26.21 80a6.6 6.6 0 0 1 .17 4.13"/><path fill="#000" d="M168.38 320.79a2.52 2.52 0 0 1-1.89-.38l-58.8-33.94a6.395 6.395 0 0 1-2.66-5.09v-66.13a4.6 4.6 0 0 1 .26-1.59 2.52 2.52 0 0 1 1.89.35l31.63 18.27a8 8 0 0 1 3.19 4.38l26.21 80a6.6 6.6 0 0 1 .17 4.13" opacity=".5"/><path fill="#37474F" d="m177.471 313.422-31.58 11.76a7.73 7.73 0 0 1-8.11-.65l-19.61-9.44c-2.12-1.72-1.92-4.22.45-5.57l22.13-12.68a10.87 10.87 0 0 1 8.78-.42l27.71 12.5c2.49 1.08 2.59 3.14.23 4.5"/><path fill="#263238" d="M106 314.321a1.74 1.74 0 0 0 .67 1.67l8 4.64a1.67 1.67 0 0 1-.67-1.63l1.75-39.29a6.007 6.007 0 0 1 2.69-4.44l22.24-12.52a2.01 2.01 0 0 1 2-.15l-8-4.61a2.003 2.003 0 0 0-2 .13l-22.28 12.47a6 6 0 0 0-2.69 4.44z"/><path fill="#37474F" d="m140.65 262.701-22.22 12.52a6 6 0 0 0-2.7 4.44l-1.73 39.34c-.07 1.63 1 2.3 2.44 1.48l30.25-17.15a4.71 4.71 0 0 0 2.14-4.42l-5.15-34.72a1.87 1.87 0 0 0-1.05-1.689 1.88 1.88 0 0 0-1.98.199"/><path fill="#455A64" d="m108.54 272.512 8 4.64a5.6 5.6 0 0 1 1.86-1.93l22.24-12.52a2.01 2.01 0 0 1 2-.15l-8-4.61a2 2 0 0 0-2 .13l-22.24 12.52a5.5 5.5 0 0 0-1.86 1.92"/><path fill="#263238" d="M111.251 267.572v-9.78c0-7 4.49-15.34 10-18.53 2.54-1.47 4.86-1.6 6.63-.64l6.11 3.55-2.71 5.19v8.64a5.7 5.7 0 0 1-2.56 4.44l-6.08 3.56-4.59 8.79-6-3.52a1.82 1.82 0 0 1-.8-1.7"/><path fill="#455A64" d="M127.91 238.621c-1.77-1-4.09-.83-6.63.64-3.34 1.92-6.29 5.71-8.11 9.94l17 9.87a5.5 5.5 0 0 0 1.11-3.08v-8.64l2.71-5.19-6.11-3.55z"/><path fill="#37474F" d="M117.27 271.072v-9.78c0-7 4.49-15.33 10-18.53s10-.09 10 7v9.78a5.67 5.67 0 0 1-2.56 4.44l-14.94 8.62c-1.35.77-2.5.11-2.5-1.53"/><path fill="#43A548" d="M139.38 271.501a96.7 96.7 0 0 1 3.32 26.6 6.86 6.86 0 0 1-2.41 4.78 75.8 75.8 0 0 1-15.1 8.7 2.003 2.003 0 0 1-2.641-.848 2 2 0 0 1-.239-.982 273 273 0 0 1-.09-28.84 7.3 7.3 0 0 1 2.59-4.76 59.7 59.7 0 0 1 11-6.37 2.557 2.557 0 0 1 3.57 1.72"/><path fill="#000" d="M122.52 310.651a2.7 2.7 0 0 1-.21-.9 273 273 0 0 1-.09-28.84 6.9 6.9 0 0 1 .83-2.61c1-1.5 1.42 11.08 1.41 18.75s-.1 15.26-1.36 14.38a1 1 0 0 1-.14-.13 3.4 3.4 0 0 1-.44-.65" opacity=".15"/><g fill="#000" opacity=".15"><path d="m140.941 297.453-.61.39c-.38.27-.93.61-1.58 1-1.31.85-3.06 1.95-4.86 3s-3.62 2-5 2.68c-.7.35-1.27.66-1.69.86s-.64.33-.64.33l.71-.15c.44-.12 1.09-.26 1.84-.51a25 25 0 0 0 2.52-1c.45-.21.93-.4 1.38-.65s.93-.49 1.4-.74c.9-.54 1.8-1.1 2.6-1.69a24 24 0 0 0 2.1-1.7c.59-.52 1-1 1.37-1.33s.46-.49.46-.49M140.941 292.492s-.22.13-.61.39-.93.6-1.58 1c-1.31.85-3.06 1.95-4.86 3s-3.62 2-5 2.68c-.7.35-1.27.66-1.69.85s-.64.33-.64.33l.71-.15c.44-.11 1.09-.26 1.84-.51a25 25 0 0 0 2.52-.95c.45-.21.93-.41 1.38-.65s.93-.49 1.4-.75c.9-.53 1.8-1.1 2.6-1.68s1.52-1.17 2.1-1.7 1-1 1.37-1.34.46-.52.46-.52M139.921 288.383l-.57.35c-.35.25-.87.55-1.47.94a69 69 0 0 1-4.5 2.68c-1.67.9-3.38 1.72-4.68 2.35l-1.57.77-.59.31s.24 0 .65-.12 1-.22 1.71-.43q1.2-.346 2.36-.81c.42-.18.86-.34 1.29-.56s.87-.42 1.3-.64l1.26-.74c.41-.25.79-.53 1.17-.79a21 21 0 0 0 1.94-1.57c.55-.48 1-.94 1.25-1.24s.45-.5.45-.5M139.501 283.752s-.2.11-.55.34-.84.52-1.42.9c-1.17.75-2.73 1.71-4.35 2.56s-3.29 1.62-4.55 2.22l-1.52.75c-.37.18-.57.3-.57.3l.63-.12c.4-.09 1-.21 1.66-.4a22 22 0 0 0 2.28-.75c.41-.16.84-.32 1.26-.52s.85-.4 1.27-.61.82-.46 1.22-.71.77-.5 1.14-.75a19 19 0 0 0 1.87-1.52q.635-.575 1.21-1.21zM138.801 279.332l-.53.31-1.34.85a47 47 0 0 1-4.1 2.36c-1.53.77-3.13 1.45-4.32 2s-2 1-2 1a21 21 0 0 0 2.16-.45 23.8 23.8 0 0 0 4.57-1.67c.39-.21.79-.42 1.16-.65q.557-.322 1.08-.7a18 18 0 0 0 1.76-1.44 16 16 0 0 0 1.56-1.61M137.151 275.072s-.68.39-1.64 1-2.24 1.37-3.57 2.05-2.69 1.34-3.71 1.86-1.69.9-1.69.9a14 14 0 0 0 1.89-.37 20.2 20.2 0 0 0 4-1.51c.34-.19.68-.38 1-.58s.64-.42.94-.63a15 15 0 0 0 1.52-1.28q.69-.667 1.26-1.44"/></g><path fill="#43A548" d="M152.58 304.331c5 .89 9.91 3.43 14.8 7.1a2.2 2.2 0 0 1 .979 1.83 2.2 2.2 0 0 1-.979 1.83 98.3 98.3 0 0 1-19 10.91 7.1 7.1 0 0 1-5.38-.14 47.4 47.4 0 0 1-11.37-8.12 2.53 2.53 0 0 1-.406-3.101c.192-.323.454-.599.766-.809a80.4 80.4 0 0 1 14.92-8.75 12 12 0 0 1 5.67-.75"/><g fill="#000" opacity=".2"><path d="m164.71 313.271-.84.241c-.53.18-1.3.409-2.2.759a46 46 0 0 0-6.38 3 42 42 0 0 0-5.84 4 31 31 0 0 0-2.38 2.14l2.71-1.679c1.62-1 3.79-2.32 6-3.56s4.44-2.451 6.13-3.341l2-1.09c.53-.31.8-.47.8-.47M160.001 310.531l-.85.25c-.53.17-1.3.41-2.2.75a47.4 47.4 0 0 0-6.38 3 42.4 42.4 0 0 0-5.83 4c-1.49 1.22-2.39 2.14-2.39 2.14l2.65-1.67c1.61-1 3.78-2.32 6-3.57s4.44-2.44 6.13-3.33l2-1.09zM155.89 308.223l-.85.24c-.53.18-1.3.41-2.19.76a46 46 0 0 0-6.39 3 42.5 42.5 0 0 0-5.83 4 31 31 0 0 0-2.39 2.15l2.72-1.69c1.62-1 3.78-2.32 6-3.56s4.44-2.45 6.13-3.34l2-1.09zM151.45 306.322s-.29.07-.78.22-1.2.36-2 .67a42 42 0 0 0-5.87 2.73 37.6 37.6 0 0 0-5.34 3.66c-1.36 1.13-2.18 2-2.18 2s.26-.14.7-.41l1.81-1.11c1.49-.92 3.48-2.12 5.5-3.26s4.07-2.24 5.61-3.07l1.87-1z"/></g><path fill="#43A548" d="M147.74 299.432s17.32 5.09 23.63 7.42 9.15 4.94 9.69 9.21c.329 2.506.496 5.032.5 7.56l-18.55 10-50.38-24z"/><path fill="#000" d="M147.74 299.432s17.32 5.09 23.63 7.42 9.15 4.94 9.69 9.21c.329 2.506.496 5.032.5 7.56l-18.55 10-50.38-24z" opacity=".4"/><path fill="#000" d="M167.5 334.782s-2.72-9.75-5.35-14.42-14.71-9.18-14.71-9.18a10.75 10.75 0 0 0 3.45-6 7.58 7.58 0 0 1-.89 5.51s8.06 2.17 12.24 4.79c5.41 3.4 7.56 17.46 7.56 17.46z" opacity=".1"/><path fill="#FFA8A7" d="M139.43 260.091c6.94-.82 9 1.8 12.95 5.91 4.24 4.37 13 12.47 13 12.47l17 5.83 6.31 2.07s0 9.791-2.85 7.891-15.55-3.821-19.48-4.691c-4.43-1-7.13-1-9.92-3.42-5.45-4.73-12.9-10.89-12.9-10.89z"/><path fill="#FFA8A7" d="M191.6 286.812a5.78 5.78 0 0 1 3.67-.54 3.12 3.12 0 0 1 2.12 1.93q.106.479.32.92.192.276.46.48c.911.546 1.739 1.22 2.46 2 .455.798.693 1.701.69 2.62a9.46 9.46 0 0 1-.65 4.6 4.3 4.3 0 0 1-3.61 2.61 4.6 4.6 0 0 1-1.71-.36 10.7 10.7 0 0 1-2.54-1.55c-.799-.52-1.659-.94-2.56-1.25a10.86 10.86 0 0 1-4.62-4.28c-.5-1.65 1.1-6.3 2.34-6.75.65-.24 3.08-.24 3.63-.43"/><path fill="#EBEBEB" d="M152.87 283.831c-3.8-3.22-9.75-8.34-9.75-8.34l-4.12-15.49c1.73-.29 4.39-1 7.92.72 2.31 1.15 9.48 8.28 14.14 13.06.04.02-1.63 7.61-8.19 10.05"/><path fill="#263238" d="M174.29 318.731c-2.9-1.66-4.49-5-4.49-9.39 0-8.24 5.59-17.91 12.72-22 3.8-2.19 7.49-2.49 10.38-.82s4.48 5 4.48 9.4c0 8.24-5.58 17.91-12.71 22a12.8 12.8 0 0 1-6.28 1.89 8 8 0 0 1-4.1-1.08m10.38-27.73c-5.73 3.31-10.57 11.69-10.57 18.31 0 2.75.85 4.81 2.33 5.67s3.71.56 6.09-.81c5.72-3.31 10.56-11.69 10.56-18.31 0-2.75-.85-4.82-2.33-5.67a3.9 3.9 0 0 0-1.95-.48 8.6 8.6 0 0 0-4.13 1.29"/><path fill="#263238" d="M183.59 297.921a9 9 0 0 0-4.07 7c0 2.6 1.82 3.65 4.07 2.35a9 9 0 0 0 4.07-7c0-2.6-1.82-3.65-4.07-2.35"/><path fill="#263238" d="m184.07 303.74 10.44-12.99-1.68-1.35-9.72 12.09-9.51-.85-.19 2.15z"/><path fill="#263238" d="M184.67 302.611h-2.15v13.44h2.15z"/><path fill="#FFA8A7" d="M197.38 291.802c-1.16-.08-2.28.16-3.06 2.42-.62 1.79-1.24 7 2.3 7.21 4.25-.75.76-9.63.76-9.63"/><path fill="#FAFAFA" d="M147.82 271.852c-.67-4.88-2.13-11.181-8.78-11.831-4.248.19-8.478.671-12.66 1.44a80 80 0 0 0-8.31 2.37l-1.88 14.521 1.33 17.649s-.37 5.44-.48 10.33c13.29 4.73 28 .001 31.86-6.539-.17-6.51-.41-23.12-1.08-27.94"/><path fill="#263238" d="M147.51 240.301a9.81 9.81 0 0 0-19.59-.4l-4.51-3.09a3.476 3.476 0 0 0-2.85 1.1c-1.2 1.31-.38 5.25 1.29 9.08 0 0 1.73 7 2.37 8.16a3.23 3.23 0 0 0 1.9 1.43l-.23-4.29 17.8-1.59-1.79-1.22a9.82 9.82 0 0 0 5.61-9.18"/><path fill="#FFA8A7" d="M125.54 247.2c-.55.36-1.4-.71-2.12-1.42a2.47 2.47 0 0 0-4.11.8c-1.08 2.49 1.19 5.66 3 6.16 3.13.88 3.54-1.13 3.54-1.13l.33 10.51c4.91 5.31 14.22 3.11 10.35.05l-.12-3.41c1.39.179 2.795.206 4.19.08 2.27-.42 3.65-2.27 4.26-4.76 1-4 1.3-7.22.1-15-1.31-8.52-11.26-8.29-16.52-4.73s-2.9 12.85-2.9 12.85"/><path fill="#263238" d="M147 231.081a3.7 3.7 0 0 0-2.41-.24 2.89 2.89 0 0 0-1.79-2.84 3.36 3.36 0 0 0-3.68.55 1.72 1.72 0 0 0-1.46-1.91 4.65 4.65 0 0 0-2.62.48c-1.24.5-2.46 1.05-3.73 1.5-2.22.78-4.6 1.25-6.6 2.5a4.3 4.3 0 0 0-1.25 1.1 3.54 3.54 0 0 0-.53 2.23q.03.384.12.76a1.8 1.8 0 0 0-.54-.4 1.88 1.88 0 0 0-1.486-.081 1.9 1.9 0 0 0-1.084 1.021l3.4 1.69c-.07.68-.14 1.36-.2 2a18.5 18.5 0 0 0 0 5.69c.03.215.109.42.23.6q.28.258.47.59l.61 1.09c.37.67 1.15 1.41 1.89.72.353-.406.566-.914.61-1.45.27-1.602.371-3.228.3-4.85a6.13 6.13 0 0 0 3.55-3.82 16.87 16.87 0 0 0 8.91 1.48 10 10 0 0 0 6.15-3.27q.48-.673 1.08-1.24c.35-.238.655-.536.9-.88a2.07 2.07 0 0 0 .267-1.701 2.1 2.1 0 0 0-.41-.78 2.1 2.1 0 0 0-.697-.539"/><path fill="#F28F8F" d="M136.42 258.76s-5.13-.86-6.94-1.74a5.94 5.94 0 0 1-2.54-2.36 8.2 8.2 0 0 0 1.49 2.83c1.36 1.62 8 2.63 8 2.63z"/><path fill="#263238" d="M134.881 246.09a1.002 1.002 0 0 1-1.195.981 1.003 1.003 0 0 1-.729-1.364 1 1 0 0 1 .924-.617 1 1 0 0 1 1 1M134.24 242.161l-2.82 1.23a1.62 1.62 0 0 1 .83-2.08 1.5 1.5 0 0 1 1.177.001 1.5 1.5 0 0 1 .813.849"/><path fill="#B16668" d="m135.3 252.15 3.48 1.18a1.8 1.8 0 0 1-.894 1.092 1.8 1.8 0 0 1-1.406.118 1.923 1.923 0 0 1-1.18-2.39"/><path fill="#263238" d="m143.6 242.301-3-.26a1.425 1.425 0 0 1 1.01-1.276c.185-.056.379-.074.57-.054a1.52 1.52 0 0 1 1.42 1.59M143.12 245.571a1 1 0 0 1-.266.752.999.999 0 1 1-.968-1.654 1 1 0 0 1 1.234.902"/><path fill="#F28F8F" d="m138.25 245.352.69 6.09 2.94-1.22zM137.48 254.58a1.871 1.871 0 0 0-1.85-1.68 1.8 1.8 0 0 0-.4 0 1.9 1.9 0 0 0 1.25 1.59c.317.13.666.161 1 .09"/><path fill="#263238" d="M170.63 324.001a520 520 0 0 1 45.37-30.36 284 284 0 0 1 49.12-22.1c-.68 2.58 4.37 6-1.11 10.44-3.88 3.17-16.07 9.16-21.13 12.56-11.94 8.34-39.45 23.8-43.55 26.25-20.54 11.13-25.31 7.3-28.76 3.2z"/><path fill="#37474F" d="M170.63 324.001c1-.61 32.2-19.93 47.21-29 14.29-8.59 43.74-21.86 47.31-23.48A262.8 262.8 0 0 0 216 293.642a520 520 0 0 0-45.37 30.359"/><path fill="#43A548" d="m185.5 325.412-28.88-83 44.13-25.41 33.63-19.31 25.62 74.31 3 8.65zm85.75-46.41L241 189.282a16 16 0 0 0-.93-2.19 12 12 0 0 0-3.75-4.45l-.39-.24-2.15-1.24-.08-.06-39-22.51-92.41 53.41v121.42l24.42 14.1c4.24-14.21 16.08-19.37 30-11.32 9 5.17 17.05 14.8 22.82 26.09l17-9.8 58-33.5 17.47-10.06v-25.73a13.4 13.4 0 0 0-.75-4.2m-102.19 46.56a2.46 2.46 0 0 1-1.82-.36l-56.38-32.55a6.16 6.16 0 0 1-1.852-2.139 6.2 6.2 0 0 1-.698-2.741v-63.41a4.6 4.6 0 0 1 .25-1.53 2.44 2.44 0 0 1 1.82.35l30.32 17.51a7.66 7.66 0 0 1 3.06 4.2l25.13 76.69a6.34 6.34 0 0 1 .17 3.98"/><path fill="#000" d="m185.5 325.412-28.88-83 44.13-25.41 33.63-19.31 25.62 74.31 3 8.65zm85.75-46.41L241 189.282a16 16 0 0 0-.93-2.19 12 12 0 0 0-3.75-4.45l-.39-.24-2.15-1.24-.08-.06-39-22.51-92.41 53.41v121.42l24.42 14.1c4.24-14.21 16.08-19.37 30-11.32 9 5.17 17.05 14.8 22.82 26.09l17-9.8 58-33.5 17.47-10.06v-25.73a13.4 13.4 0 0 0-.75-4.2m-102.19 46.56a2.46 2.46 0 0 1-1.82-.36l-56.38-32.55a6.16 6.16 0 0 1-1.852-2.139 6.2 6.2 0 0 1-.698-2.741v-63.41a4.6 4.6 0 0 1 .25-1.53 2.44 2.44 0 0 1 1.82.35l30.32 17.51a7.66 7.66 0 0 1 3.06 4.2l25.13 76.69a6.34 6.34 0 0 1 .17 3.98" opacity=".1"/><path fill="#000" d="m205.51 313.852-5.58 3.23v62.35l5.58-3.23z" opacity=".2"/><path fill="#fff" d="m237.92 184.001-92.44 53.37a8.8 8.8 0 0 0-1.94-1.56l-41.25-23.81 92.44-53.36 39 22.51.08.06 2.19 1.19.39.24q.833.603 1.53 1.36" opacity=".3"/><path fill="#fff" d="m233.35 180.881 2.65 1.52a12.74 12.74 0 0 1 5.06 6.88l30.19 89.72a13.3 13.3 0 0 1 .73 4.18v2.43s-26.98-80.47-30.18-89.85-4.23-12.44-8.45-14.88" opacity=".7"/><path fill="#000" d="M203.919 335.4v17.14a4.629 4.629 0 0 0 2 4.26c.557.32 1.189.486 1.83.48a5.8 5.8 0 0 0 2.86-.86l30.78-17.54a12.9 12.9 0 0 0 5.92-10.25v-17.15a4.13 4.13 0 0 0-2.017-4.254 4.14 4.14 0 0 0-4.693.384l-30.78 17.55a12.88 12.88 0 0 0-5.9 10.24m1.69 18.18a5.7 5.7 0 0 1-.09-1v-1.47h.07l40.15-22.95v.53a8.5 8.5 0 0 1-.33 2.19zm-.09-15.58h.07l40.15-23v2.55h-.08l-40.14 23zm40.22-16.05h-.08l-40.14 22.95v-2.55h.07l40.15-23zm0 4.36h-.08l-40.14 22.95v-2.55h.07l40.15-23zm-40 7.2 39.89-22.81q.067.402.07.81v1.7h-.08l-40.14 23v-.76c.019-.667.12-1.328.3-1.97zm39.32-24.33-38.49 22a10.73 10.73 0 0 1 4-4.63l30.84-17.55a4.26 4.26 0 0 1 2.07-.65c.35.004.693.093 1 .26.244.132.456.317.62.54zm-38.37 46.27a1.9 1.9 0 0 1-.46-.39l38.21-21.84a10.75 10.75 0 0 1-3.86 4.31L209.839 355a3.14 3.14 0 0 1-3.11.42z" opacity=".2"/><path fill="#455A64" d="M205 336.001v17.1a4.61 4.61 0 0 0 2 4.26 3.6 3.6 0 0 0 1.83.48c1.013-.03 2-.331 2.86-.87l30.78-17.54a12.87 12.87 0 0 0 5.92-10.24v-17.19c0-2-.71-3.51-2-4.26a4.64 4.64 0 0 0-4.7.39l-30.78 17.54a12.92 12.92 0 0 0-5.91 10.33m1.69 18.171a5.4 5.4 0 0 1-.09-1v-1.471h.07l40.15-22.95v.53a9 9 0 0 1-.32 2.19zm-.09-15.601h.07l40.15-23v2.56h-.08l-40.14 22.95zm40.22-16.06h-.08l-40.14 22.95v-2.56h.07l40.15-23zm0 4.37h-.08l-40.14 22.95v-2.56h.07l40.15-22.95zm-40 7.19 39.89-22.81q.066.408.07.82v1.7h-.08l-40.14 22.95v-.73a8.3 8.3 0 0 1 .31-2zm39.33-24.32-38.5 22a10.9 10.9 0 0 1 4-4.63l30.78-17.54a4.3 4.3 0 0 1 2.07-.65c.35-.002.695.088 1 .26.267.122.506.299.7.52zm-38.33 46.25a2 2 0 0 1-.46-.39l38.21-21.85a10.64 10.64 0 0 1-3.86 4.31l-30.78 17.54a3.14 3.14 0 0 1-3.11.39"/><path fill="#F0F0F0" d="M175.47 341.281v6.52a2.29 2.29 0 0 0 1 1.78l1.8 1a2.28 2.28 0 0 0 2.06 0l13.35-7.71a2.28 2.28 0 0 0 1-1.78v-6.52c0-.66-.46-.92-1-.59l-13.35 7.71a2.33 2.33 0 0 1-2.06 0l-1.8-1c-.54-.33-1-.06-1 .59M271.98 288.82l-15.63 9.02v8.9l15.63-9.02z"/><path fill="#455A64" d="m192.41 157.25-92.44 53.36 2.32 1.34 92.44-53.36z"/><path fill="#43A548" d="m178.81 332.38-30.21-89.74a12.77 12.77 0 0 0-5.06-6.87L102.29 212v121.42l24.42 14.1c4.24-14.21 16.08-19.37 30-11.32 9 5.17 17.05 14.8 22.82 26.09v-25.73a13.3 13.3 0 0 0-.72-4.18m-9.75-6.82a2.46 2.46 0 0 1-1.82-.36l-56.38-32.55a6.15 6.15 0 0 1-2.55-4.88v-63.41a4.6 4.6 0 0 1 .25-1.53 2.44 2.44 0 0 1 1.82.35l30.32 17.51a7.67 7.67 0 0 1 3.06 4.2l25.13 76.69a6.34 6.34 0 0 1 .17 3.98"/><path fill="#000" d="m178.81 332.38-30.21-89.74a12.77 12.77 0 0 0-5.06-6.87L102.29 212v121.42l24.42 14.1c4.24-14.21 16.08-19.37 30-11.32 9 5.17 17.05 14.8 22.82 26.09v-25.73a13.3 13.3 0 0 0-.72-4.18m-9.75-6.82a2.46 2.46 0 0 1-1.82-.36l-56.38-32.55a6.15 6.15 0 0 1-2.55-4.88v-63.41a4.6 4.6 0 0 1 .25-1.53 2.44 2.44 0 0 1 1.82.35l30.32 17.51a7.67 7.67 0 0 1 3.06 4.2l25.13 76.69a6.34 6.34 0 0 1 .17 3.98" opacity=".2"/><path fill="#000" d="M119.76 314.922a25.5 25.5 0 0 1-3.17-2.6c-.39-.37-1.1-.88-1.28-1.4s.4-.83.86-.85c.79 0 5.15.2 4.87-1.38-.09-.51-1.1-.63-1.5-.77-1.47-.53-2.84-1.27-4.34-1.69a10.2 10.2 0 0 1-4.72-2.42 18 18 0 0 1-2.45-3.93 86 86 0 0 1-3.7-8.05 27.7 27.7 0 0 1 4-3.64v-16.6c-2.08 2-4.2 4.3-6 6.24v28.35c.84 1.15 1.68 2.3 2.16 2.93 1.08 1.45 2.13 3.2 3.22 4.64a19.6 19.6 0 0 0 4.46 4.6 7.9 7.9 0 0 0 4.57 1.43 10.4 10.4 0 0 0 3.16-.88c.84-.35 1.76-.75 1.81-1.8a1.35 1.35 0 0 0-.125-.631 1.35 1.35 0 0 0-.405-.499 11 11 0 0 0-1.42-1.05" opacity=".1"/><path fill="#fff" d="m140.91 234.25 2.63 1.52a12.8 12.8 0 0 1 5.06 6.88l30.21 89.73c.466 1.349.712 2.763.73 4.19V339s-26.93-80.49-30.18-89.88-4.23-12.43-8.45-14.87" opacity=".7"/><path fill="#FFA8A7" d="M93.56 286.451a39.8 39.8 0 0 1 5.9-7.64c2.78-2.9 8-8.71 12.05-12.22 1.33-1.14 3.39-2 6.55-2.8 2 .74 2.89 5 2.22 9.53-.76 5.09-3.44 6.88-3.44 6.88-3 1.81-10.48 7.05-12.5 9.59a89 89 0 0 0 3.69 8 17.8 17.8 0 0 0 2.46 3.92 10.25 10.25 0 0 0 4.71 2.43c1.51.42 2.88 1.15 4.35 1.69.39.14 1.4.26 1.49.77.28 1.58-4.07 1.34-4.87 1.38-.45 0-1.07.28-.86.85s.9 1 1.28 1.4c.989.951 2.052 1.82 3.18 2.6q.724.446 1.37 1a1.31 1.31 0 0 1 .53 1.14c0 1-1 1.45-1.8 1.8a10.7 10.7 0 0 1-3.17.88 7.82 7.82 0 0 1-4.56-1.44 19 19 0 0 1-4.46-4.6c-1.1-1.44-2.14-3.18-3.23-4.63s-4-5.5-4.52-6.25a110 110 0 0 1-6.13-10.17c-.8-1.56-1.11-2.72-.24-4.11"/><path fill="#F28F8F" d="M104.34 289.792a7.3 7.3 0 0 0-3.85-.48 6 6 0 0 1 4.39-.13z"/><path fill="#EBEBEB" d="M118.78 263.611c-2.252.277-4.43.98-6.42 2.07-1.37.7-4.65 3.92-7 6.43-1.46 1.57-4.75 5-7.45 8 1.74 4.41 4.27 7.36 7.51 9a74.6 74.6 0 0 1 11.6-8.25 11.6 11.6 0 0 0 4.08-9.05c.02-6.02-1.62-7.81-2.32-8.2"/><path fill="#263238" d="m277.32 435.871-.32.46a4.1 4.1 0 0 0-1.51-1.37L211 397.681a4.01 4.01 0 0 1-2-3.44v-7.71l-5.47 3.15v7.68a4 4 0 0 0 2 3.43l64.4 37.37c2 1.18 4.92 1.42 6.45.53a1.62 1.62 0 0 0 .92-1.38z"/><path fill="#37474F" d="M210.33 393.42a4 4 0 0 0 2 3.44l63.17 36.61c2 1.18 2.44 2.85.9 3.74s-4.42.64-6.45-.54L206.84 400a4 4 0 0 1-2-3.44v-7.67l5.47-3.15z"/><path fill="#263238" d="m320.58 410.852-.32.46a4.1 4.1 0 0 0-1.51-1.37l-64.47-37.27a4 4 0 0 1-2-3.44v-7.72l-5.47 3.16v7.67a4 4 0 0 0 2 3.44l64.4 37.36c2 1.18 4.92 1.42 6.45.53a1.64 1.64 0 0 0 .92-1.38z"/><path fill="#37474F" d="M253.59 368.41a4 4 0 0 0 2 3.44l63.17 36.61c2 1.17 2.44 2.84.9 3.73s-4.42.65-6.45-.53L250.1 375a4 4 0 0 1-2-3.43v-7.67l5.47-3.16z"/><path fill="#263238" d="m207.02 392.621-4.32-2.49.01-149.42 4.3 2.51z"/><path fill="#37474F" d="m207.02 392.621 4.32-2.49v-149.42l-4.31 2.51z"/><path fill="#263238" d="m250.15 367.731-4.32-2.5.01-149.42 4.3 2.51z"/><path fill="#37474F" d="m250.15 367.731 4.32-2.5v-149.42l-4.31 2.51z"/><path fill="#43A548" d="M195.01 251.241v-6.07l69.43-40.11v6.07zM195.01 251.24l-5.23-3.02v-6.07l5.23 3.02z"/><path fill="#000" d="m195.01 251.24-5.23-3.02v-6.07l5.23 3.02z" opacity=".2"/><path fill="#43A548" d="m189.78 242.151 69.4-40.12 5.26 3.03-69.43 40.11z"/><path fill="#fff" d="m189.78 242.151 69.4-40.12 5.26 3.03-69.43 40.11z" opacity=".5"/><path fill="#43A548" d="m317.85 359.43-54.59-31.58-62 35.88 54.6 31.58z"/><path fill="#fff" d="m317.85 359.43-54.59-31.58-62 35.88 54.6 31.58z" opacity=".7"/><path fill="#000" d="m207.65 360.03 53.56 30.98 55.6-32.18-53.55-30.98z" opacity=".1"/><path fill="#43A548" d="m255.86 436.31 61.99-35.88v-41l-61.99 35.88z"/><path fill="#fff" d="m255.86 436.31 61.99-35.88v-41l-61.99 35.88z" opacity=".6"/><path fill="#455A64" d="M262.7 422.71a1.1 1.1 0 0 1-.53-.14 1.63 1.63 0 0 1-.67-1.47v-4.67h.23l3.4-2v4.86a3.91 3.91 0 0 1-1.68 3.17c-.222.15-.481.236-.75.25m-.65-5.64v4a1.12 1.12 0 0 0 .39 1 .78.78 0 0 0 .74-.08 3.45 3.45 0 0 0 1.41-2.7V419h-1.26l-.25-1.7zm1.75 1.34h.79v-3l-2 1.19 1 .18z"/><path fill="#455A64" d="M263.32 426.18a.287.287 0 0 1-.28-.28v-3.65a.28.28 0 0 1 .28-.27.27.27 0 0 1 .27.27v3.65a.28.28 0 0 1-.27.28"/><path fill="#455A64" d="M261.73 427.091a.28.28 0 0 1-.251-.205.279.279 0 0 1 .111-.305l3.18-1.83a.27.27 0 0 1 .37.1.27.27 0 0 1 .027.206.28.28 0 0 1-.127.164l-3.17 1.83a.23.23 0 0 1-.14.04M273 420.811a.6.6 0 0 1-.3-.08.73.73 0 0 1-.33-.66v-.75a.269.269 0 0 1 .27-.27c.073 0 .142.028.195.078.052.05.082.119.085.192v.75c0 .11 0 .17.05.18s.08 0 .18 0a1.63 1.63 0 0 0 .5-1.24v-4.85a.278.278 0 0 1 .471-.191c.051.05.079.119.079.191v4.84a2.06 2.06 0 0 1-.78 1.71.9.9 0 0 1-.42.1"/><path fill="#455A64" d="M270.16 416.56v-.47a7.7 7.7 0 0 1 3.49-6 2.305 2.305 0 0 1 2.649-.243 2.31 2.31 0 0 1 1.121 2.413v.16zm5.13-6.47a2.8 2.8 0 0 0-1.37.42 7.207 7.207 0 0 0-3.19 5.09l6.14-3.55a2.01 2.01 0 0 0-.84-1.78 1.5 1.5 0 0 0-.74-.18M282.84 415.209a.27.27 0 0 1-.27-.27v-9.3a.281.281 0 0 1 .454-.163.28.28 0 0 1 .096.163v9.3a.27.27 0 0 1-.173.253.3.3 0 0 1-.107.017"/><path fill="#455A64" d="M282.05 407.76a.2.2 0 0 1-.11 0 .3.3 0 0 1-.089-.06.28.28 0 0 1-.051-.3l1-2.24 1.08 1.25a.27.27 0 0 1-.089.442.28.28 0 0 1-.212 0 .3.3 0 0 1-.089-.062l-.52-.59-.62 1.45a.3.3 0 0 1-.133.102.27.27 0 0 1-.167.008M285.37 413.77a.27.27 0 0 1-.27-.27v-9.3c0-.072.028-.141.079-.191a.27.27 0 0 1 .191-.079.28.28 0 0 1 .28.27v9.3a.28.28 0 0 1-.28.27"/><path fill="#455A64" d="M284.57 406.321a.2.2 0 0 1-.11 0 .27.27 0 0 1-.146-.151.27.27 0 0 1 .006-.209l1-2.25 1.09 1.26a.27.27 0 0 1 0 .38.26.26 0 0 1-.38 0l-.52-.59-.63 1.45a.26.26 0 0 1-.31.11"/><path fill="#43A548" d="m255.86 436.31-54.6-31.58v-41l54.6 31.58z"/><path fill="#fff" d="m255.86 436.31-54.6-31.58v-41l54.6 31.58z" opacity=".4"/><path fill="#37474F" d="m225.89 384.179 4.02 2.32v-6.24l-4.02-2.31z"/><path fill="#455A64" d="m229.91 380.26 61.99-35.88-4.02-2.31-61.99 35.88z"/><path fill="#37474F" d="m232.25 374.261 4.02 2.32 2.27-1.29-4.03-2.33z"/><path fill="#FAFAFA" d="m209.08 389.53 14.19 8.2a1.43 1.43 0 0 1 .64 1.11v9.86c0 .81-.58 1.15-1.28.74l-14.19-8.2a1.39 1.39 0 0 1-.64-1.11v-9.86c0-.81.57-1.15 1.28-.74"/><path fill="#455A64" d="m208.72 391.061.49.28v8.71l-.49-.28zM210.69 392.199l.83.49v8.71l-.83-.49zM212.65 393.33l.49.28v8.71l-.49-.28zM214.14 394.17l.96.58v8.7l-.96-.57zM216.59 395.6l.48.28v8.71l-.48-.28zM218 396.4l1.03.62v8.7l-1.03-.61zM220.52 397.871l.48.28v8.71l-.48-.28zM221.64 398.51l.24.14v8.71l-.24-.14zM219.62 397.4l.24.14v8.7l-.24-.13zM215.66 395.08l.24.14v8.71l-.24-.14zM213.49 393.83l.24.14v8.71l-.24-.14zM211.94 392.971l.24.14v8.71l-.24-.14zM209.82 391.689l.24.14v8.71l-.24-.14zM222.48 399l.49.28v8.71l-.49-.28z"/><path fill="#43A548" d="m323.2 311.51-54.6-31.58-61.99 35.88 54.6 31.58z"/><path fill="#fff" d="m323.2 311.51-54.6-31.58-61.99 35.88 54.6 31.58z" opacity=".3"/><path fill="#000" d="m206.61 315.81 50.64 29.29 56.41-32.65-50.64-29.29z" opacity=".2"/><path fill="#43A548" d="m261.21 388.4 61.99-35.88v-41.01l-61.99 35.88z"/><path fill="#455A64" d="M268.05 374.8a1 1 0 0 1-.54-.15 1.63 1.63 0 0 1-.66-1.47v-4.66h.22l3.41-2v4.85a3.93 3.93 0 0 1-1.68 3.17 1.5 1.5 0 0 1-.75.26m-.65-5.64v4a1.11 1.11 0 0 0 .39 1 .77.77 0 0 0 .74-.08 3.45 3.45 0 0 0 1.4-2.7V371h-1.26l-.25-1.7zm1.74 1.34h.79v-3l-2 1.19 1 .18z"/><path fill="#455A64" d="M268.66 378.261a.27.27 0 0 1-.191-.08.27.27 0 0 1-.079-.19v-3.65a.277.277 0 0 1 .27-.28.287.287 0 0 1 .28.28v3.66a.283.283 0 0 1-.28.26"/><path fill="#455A64" d="M267.08 379.171a.262.262 0 0 1-.24-.13.293.293 0 0 1 .1-.38l3.17-1.83a.28.28 0 0 1 .333-.006.29.29 0 0 1 .116.199q.006.06-.013.117a.275.275 0 0 1-.156.17l-3.18 1.83a.3.3 0 0 1-.13.03M278.38 372.89a.6.6 0 0 1-.3-.08.73.73 0 0 1-.33-.66v-.74a.287.287 0 0 1 .28-.28.28.28 0 0 1 .27.28v.74c0 .12 0 .18.05.19a.2.2 0 0 0 .09.019.2.2 0 0 0 .09-.019 1.6 1.6 0 0 0 .51-1.23v-4.91a.269.269 0 0 1 .27-.27c.073 0 .142.028.195.078a.28.28 0 0 1 .085.192v4.86a2.08 2.08 0 0 1-.78 1.7.83.83 0 0 1-.43.13"/><path fill="#455A64" d="M275.5 368.651v-.48a7.73 7.73 0 0 1 3.5-6.05 2.305 2.305 0 0 1 2.64-.232 2.31 2.31 0 0 1 1.12 2.402v.16zm5.13-6.48c-.482.02-.95.165-1.36.42a7.208 7.208 0 0 0-3.19 5.09l6.13-3.54a2.01 2.01 0 0 0-.84-1.78 1.4 1.4 0 0 0-.74-.19M288.19 367.301a.28.28 0 0 1-.27-.28v-9.29a.27.27 0 0 1 .27-.27.27.27 0 0 1 .27.27v9.27a.28.28 0 0 1-.27.3"/><path fill="#455A64" d="M287.39 359.85a.2.2 0 0 1-.11 0 .27.27 0 0 1-.145-.151.27.27 0 0 1 .005-.209l1-2.24 1.09 1.25a.28.28 0 0 1 0 .39.289.289 0 0 1-.39 0l-.51-.6-.63 1.45a.27.27 0 0 1-.31.11M290.72 365.86a.293.293 0 0 1-.28-.28v-9.29a.29.29 0 0 1 .28-.28.277.277 0 0 1 .27.28v9.29a.28.28 0 0 1-.27.28"/><path fill="#455A64" d="M289.92 358.411a.2.2 0 0 1-.11 0 .28.28 0 0 1-.146-.151.27.27 0 0 1 .006-.209l1-2.24 1.08 1.25a.28.28 0 0 1 0 .39.293.293 0 0 1-.39 0l-.51-.6-.63 1.45a.3.3 0 0 1-.134.098.3.3 0 0 1-.166.012"/><path fill="#43A548" d="m261.21 388.401-54.6-31.58v-41.01l54.6 31.58z"/><path fill="#000" d="m261.21 388.401-54.6-31.58v-41.01l54.6 31.58z" opacity=".1"/><path fill="#000" d="m206.61 329.521 50.64 29.29v-13.71l-50.64-29.29z" opacity=".2"/><path fill="#37474F" d="m231.24 336.259 4.01 2.32v-6.23l-4.01-2.32z"/><path fill="#455A64" d="m235.25 332.35 61.99-35.88-4.01-2.32-61.99 35.88z"/><path fill="#FAFAFA" d="m214.42 341.609 14.19 8.2a1.42 1.42 0 0 1 .64 1.11v9.87c0 .81-.57 1.14-1.27.73l-14.2-8.19a1.45 1.45 0 0 1-.64-1.11v-9.87c0-.81.58-1.14 1.28-.74"/><path fill="#455A64" d="m214.07 343.15.48.28v8.7l-.48-.27zM216.03 344.281l.84.49v8.71l-.84-.49zM218 345.42l.48.28v8.7l-.48-.27zM219.48 346.26l.97.57v8.71l-.97-.58zM221.93 347.689l.48.27v8.71l-.48-.28zM223.35 348.49l1.03.61v8.71l-1.03-.62zM225.86 349.949l.48.28v8.71l-.48-.28zM226.98 350.59l.24.14v8.71l-.24-.14zM224.97 349.48l.24.14v8.71l-.24-.14zM221.01 347.16l.24.14v8.71l-.24-.14zM218.84 345.92l.24.14v8.7l-.24-.13zM217.28 345.061l.24.14v8.7l-.24-.14zM215.17 343.77l.24.14v8.71l-.24-.14zM227.83 351.09l.48.28v8.71l-.48-.28z"/><path fill="#43A548" d="m310.33 271.32-54.59-31.58-61.99 35.88 54.59 31.58z"/><path fill="#fff" d="m310.33 271.32-54.59-31.58-61.99 35.88 54.59 31.58z" opacity=".7"/><path fill="#43A548" d="m248.34 348.21 61.99-35.88v-41.01l-61.99 35.88z"/><path fill="#fff" d="m248.34 348.21 61.99-35.88v-41.01l-61.99 35.88z" opacity=".6"/><path fill="#455A64" d="M255.18 334.61c-.187 0-.371-.052-.53-.15a1.63 1.63 0 0 1-.518-.644A1.63 1.63 0 0 1 254 333v-4.66h.23l3.4-2v4.85a3.92 3.92 0 0 1-1.67 3.17 1.55 1.55 0 0 1-.78.25m-.65-5.64v4a1.11 1.11 0 0 0 .39 1 .77.77 0 0 0 .74-.08 3.45 3.45 0 0 0 1.41-2.7v-.36h-1.26l-.25-1.7zm1.75 1.34h.79v-3l-2 1.19 1 .18z"/><path fill="#455A64" d="M255.8 338.071a.28.28 0 0 1-.191-.079.28.28 0 0 1-.079-.191v-3.65a.27.27 0 0 1 .54 0v3.65a.27.27 0 0 1-.27.27"/><path fill="#455A64" d="M254.21 338.999a.26.26 0 0 1-.23-.13.3.3 0 0 1-.038-.102.274.274 0 0 1 .138-.278l3.17-1.83a.3.3 0 0 1 .101-.034.3.3 0 0 1 .105.007.275.275 0 0 1 .192.338.28.28 0 0 1-.128.169l-3.17 1.86a.3.3 0 0 1-.14 0M265.52 332.7a.6.6 0 0 1-.3-.08.72.72 0 0 1-.33-.66v-.74a.28.28 0 0 1 .27-.28.293.293 0 0 1 .28.28v.78c0 .12 0 .18.05.19s.08 0 .18 0a1.583 1.583 0 0 0 .5-1.23V326a.282.282 0 0 1 .28-.27.27.27 0 0 1 .27.27v4.86a2.08 2.08 0 0 1-.77 1.7.85.85 0 0 1-.43.14"/><path fill="#455A64" d="M262.64 328.461v-.46a7.75 7.75 0 0 1 3.49-6.05 2.3 2.3 0 0 1 1.286-.541 2.311 2.311 0 0 1 2.484 2.711v.16zm5.13-6.48a2.77 2.77 0 0 0-1.36.42 7.2 7.2 0 0 0-2.155 2.196 7.2 7.2 0 0 0-1.045 2.894l6.14-3.54a2.01 2.01 0 0 0-.84-1.78 1.44 1.44 0 0 0-.74-.17zM275.33 327.11a.28.28 0 0 1-.28-.28v-9.29a.3.3 0 0 1 .004-.122.27.27 0 0 1 .152-.184.27.27 0 0 1 .238 0 .27.27 0 0 1 .152.184q.015.06.004.122v9.29a.282.282 0 0 1-.27.28"/><path fill="#455A64" d="M274.53 319.661a.2.2 0 0 1-.11 0 .28.28 0 0 1-.146-.151.27.27 0 0 1 .006-.209l1-2.24 1.08 1.25a.28.28 0 0 1 0 .39.29.29 0 0 1-.39 0l-.51-.6-.63 1.45a.3.3 0 0 1-.134.098.3.3 0 0 1-.166.012M277.85 325.67a.278.278 0 0 1-.27-.28v-9.29a.28.28 0 0 1 .076-.197.27.27 0 0 1 .194-.083.28.28 0 0 1 .28.28v9.29a.288.288 0 0 1-.28.28"/><path fill="#455A64" d="M277.05 318.221h-.11a.28.28 0 0 1-.14-.36l1-2.24 1.09 1.25a.3.3 0 0 1 .062.089.272.272 0 0 1-.062.301.28.28 0 0 1-.38 0l-.52-.6-.63 1.45a.27.27 0 0 1-.31.11"/><path fill="#43A548" d="m248.34 348.211-54.59-31.58v-41.01l54.59 31.58z"/><path fill="#fff" d="m248.34 348.211-54.59-31.58v-41.01l54.59 31.58z" opacity=".4"/><path fill="#37474F" d="m218.37 296.07 4.02 2.32v-6.23l-4.02-2.32z"/><path fill="#455A64" d="m222.39 292.161 61.99-35.88-4.01-2.32-62 35.88z"/><path fill="#FAFAFA" d="m201.56 301.421 14.19 8.2a1.415 1.415 0 0 1 .64 1.11v9.87c0 .81-.58 1.14-1.28.73l-14.19-8.19a1.46 1.46 0 0 1-.64-1.11v-9.87c0-.81.57-1.16 1.28-.74"/><path fill="#455A64" d="m201.2 302.961.49.28v8.7l-.49-.27zM203.17 304.09l.83.49v8.71l-.83-.49zM205.13 305.23l.49.28v8.7l-.49-.27zM206.62 306.07l.96.57v8.71l-.96-.58zM209.07 307.5l.48.27v8.71l-.48-.28zM210.48 308.301l1.03.61v8.71l-1.03-.62zM213 309.76l.48.28v8.71l-.48-.28zM214.12 310.4l.24.14v8.71l-.24-.14zM212.1 309.291l.24.14v8.71l-.24-.14zM208.14 306.971l.24.14v8.71l-.24-.14zM205.97 305.73l.25.14v8.7l-.25-.14zM204.42 304.871l.24.14v8.7l-.24-.14zM202.3 303.58l.25.14-.01 8.71-.24-.14zM214.96 310.9l.49.28v8.71l-.49-.28z"/><path fill="#43A548" d="m374.49 122.599 4.1-11.66-3.3-9.51v-5.82l10.09 5.82v5.83l-4.38 11.46a.65.65 0 0 1-.29.26z"/><path fill="#000" d="m374.49 122.599 4.1-11.66-3.3-9.51v-5.82l10.09 5.82v5.83l-4.38 11.46a.65.65 0 0 1-.29.26z" opacity=".2"/><path fill="#43A548" d="M350.41 49.33a6.69 6.69 0 0 1 3-5.24l2.47-1.42a6.69 6.69 0 0 1 6 0L399.7 64.5a6.69 6.69 0 0 1 3 5.24v41.539a6.72 6.72 0 0 1-3 5.24l-2.47 1.42a6.69 6.69 0 0 1-6 0l-12.15-7-4.32 11.45a.65.65 0 0 1-1.17-.11l-4.59-17.17-15.55-9a6.67 6.67 0 0 1-3-5.23z"/><path fill="#000" d="M402.72 111.28a6.73 6.73 0 0 1-3 5.24l-2.47 1.42a6.74 6.74 0 0 1-5.53.24c1.43.54 2.51-.26 2.51-2V74.65a6.3 6.3 0 0 0-.88-3l8.5-4.91c.549.907.855 1.94.89 3z" opacity=".2"/><path fill="#fff" d="M350.51 48.47c.35-1.29 1.52-1.69 2.92-.89l37.76 21.84a6 6 0 0 1 2.13 2.26l8.5-4.91a6 6 0 0 0-2.13-2.26L362 42.67a6.71 6.71 0 0 0-6.05 0l-2.47 1.43a6.64 6.64 0 0 0-2.97 4.37" opacity=".3"/><path fill="#fff" d="m357 79.21 1.6 5.36a1.01 1.01 0 0 0 .71.6l3.16.76c.339.086.629.302.81.6a28 28 0 0 0 1.7 3c.163.248.23.547.19.84l-1 3.49a1.01 1.01 0 0 0 .28.81l3.71 3.91c.18.19.39.25.53.16s.06 0 .09-.07l1.69-2.67c.12-.19.44-.17.72 0s.68.45 1 .64.72.4 1.07.57c.316.152.575.401.74.71l1.83 4.9a.92.92 0 0 0 .73.51l3.37.34a.53.53 0 0 0 .32-.06.296.296 0 0 0 .14-.33l-1.06-4.82a.554.554 0 0 1 .34-.61 5.5 5.5 0 0 0 1.48-.85.6.6 0 0 1 .75.12l3.44 3.15a.6.6 0 0 0 .38.18.26.26 0 0 0 .13 0 .18.18 0 0 0 .09-.1l1.53-3.39a.87.87 0 0 0-.19-.8l-3.23-3.91a1.33 1.33 0 0 1-.31-.86c.085-.924.085-1.855 0-2.78a.48.48 0 0 1 .142-.343.46.46 0 0 1 .348-.127l2.89-.17a.37.37 0 0 0 .325-.134.37.37 0 0 0 .065-.346L386 82.08a1.08 1.08 0 0 0-.72-.6l-3.16-.76a1.4 1.4 0 0 1-.81-.6 27 27 0 0 0-1.7-3 1.23 1.23 0 0 1-.19-.84l1-3.49a.99.99 0 0 0-.28-.81l-3.7-3.91c-.23-.23-.5-.27-.63-.09l-1.72 2.64c-.12.18-.44.17-.72 0a15.6 15.6 0 0 0-2.09-1.21 1.65 1.65 0 0 1-.74-.71l-1.82-4.9a1 1 0 0 0-.74-.51l-3.39-.29a.53.53 0 0 0-.32.06.3.3 0 0 0-.15.34l1.07 4.82a.546.546 0 0 1-.35.6 5.3 5.3 0 0 0-1.47.86.61.61 0 0 1-.76-.13l-3.44-3.14a.48.48 0 0 0-.5-.16.2.2 0 0 0-.1.11L357 69.74a.89.89 0 0 0 .2.8l3.22 3.91c.199.24.312.54.32.85q-.073.72-.07 1.44c0 .44 0 .89.07 1.35a.47.47 0 0 1-.49.47l-2.88.16a.6.6 0 0 0-.21.06.35.35 0 0 0-.16.43m12.68 9.84c-3.45-3.65-5.09-9.16-3.66-12.33a3.39 3.39 0 0 1 2.65-2.09h.4a5.4 5.4 0 0 1 2.39.51q.438.19.85.43c.941.57 1.799 1.267 2.55 2.07a15.1 15.1 0 0 1 4.14 9.54q.007.501-.05 1a5.8 5.8 0 0 1-.47 1.76 3.39 3.39 0 0 1-3.17 2.14h-1.28a9.7 9.7 0 0 1-4.35-3.03"/></svg>