<svg xmlns="http://www.w3.org/2000/svg" width="38" height="38" fill="none"><path stroke="#43A548" stroke-linecap="round" stroke-linejoin="round" stroke-width="3" d="M19 9v26.666M19 9h-5.893a3.24 3.24 0 0 1-2.315-.977 3.36 3.36 0 0 1-.959-2.357c0-.884.345-1.732.96-2.357a3.24 3.24 0 0 1 2.314-.976C17.691 2.333 19 9 19 9m0 0h5.893c.868 0 1.7-.352 2.315-.977a3.36 3.36 0 0 0 .959-2.357c0-.884-.345-1.732-.96-2.357a3.24 3.24 0 0 0-2.314-.976C20.31 2.333 19 9 19 9m13.333 8.333v13c0 1.867 0 2.8-.363 3.513a3.33 3.33 0 0 1-1.457 1.457c-.713.363-1.646.363-3.513.363H11c-1.867 0-2.8 0-3.513-.363a3.33 3.33 0 0 1-1.457-1.457c-.363-.713-.363-1.646-.363-3.513v-13m-3.334-5.667v3c0 .934 0 1.4.182 1.757.16.314.415.569.728.728.357.182.824.182 1.757.182h28c.934 0 1.4 0 1.757-.182.313-.16.568-.414.728-.728.182-.356.182-.823.182-1.757v-3c0-.933 0-1.4-.182-1.756a1.67 1.67 0 0 0-.728-.729C34.4 9 33.934 9 33 9H5c-.933 0-1.4 0-1.757.181-.313.16-.568.415-.728.729-.182.356-.182.823-.182 1.756"/></svg>